<svg width="55" height="55" viewBox="0 0 55 55" fill="none" xmlns="http://www.w3.org/2000/svg">
<g clip-path="url(#clip0_1849_1783)">
<path d="M40 0H15C6.71573 0 0 6.71573 0 15V40C0 48.2843 6.71573 55 15 55H40C48.2843 55 55 48.2843 55 40V15C55 6.71573 48.2843 0 40 0Z" fill="#F4F7FB"/>
<path d="M33.5881 12.05C33.5395 12.0014 33.4818 11.963 33.4183 11.937C33.3548 11.9109 33.2867 11.8976 33.2181 11.898H17.6181C16.9285 11.898 16.2672 12.1719 15.7796 12.6595C15.292 13.1471 15.0181 13.8084 15.0181 14.498V40.498C15.0181 41.1875 15.292 41.8488 15.7796 42.3364C16.2672 42.824 16.9285 43.098 17.6181 43.098H37.3811C38.0706 43.098 38.7319 42.824 39.2195 42.3364C39.7071 41.8488 39.9811 41.1875 39.9811 40.498V18.659C39.9811 18.5906 39.9678 18.523 39.9417 18.4598C39.9156 18.3967 39.8773 18.3393 39.8291 18.291L33.5881 12.05ZM33.7401 13.673L38.2051 18.138H35.3011C34.8875 18.1374 34.491 17.9729 34.1986 17.6805C33.9061 17.388 33.7416 16.9915 33.7411 16.578L33.7401 13.673ZM38.9401 40.501C38.9395 40.9145 38.775 41.311 38.4826 41.6035C38.1901 41.8959 37.7936 42.0604 37.3801 42.061H17.6181C17.2045 42.0604 16.808 41.8959 16.5156 41.6035C16.2231 41.311 16.0586 40.9145 16.0581 40.501V14.501C16.0586 14.0874 16.2231 13.6909 16.5156 13.3985C16.808 13.106 17.2045 12.9415 17.6181 12.941H32.7001V16.581C32.7001 16.9224 32.7673 17.2605 32.898 17.5759C33.0286 17.8914 33.2202 18.178 33.4616 18.4194C33.703 18.6609 33.9896 18.8524 34.3051 18.983C34.6205 19.1137 34.9586 19.181 35.3001 19.181H38.9401V40.501Z" fill="#306DB5"/>
<path d="M25.939 23.86C25.939 23.9979 25.9937 24.1301 26.0913 24.2277C26.1888 24.3252 26.3211 24.38 26.459 24.38H36.339C36.4769 24.38 36.6091 24.3252 36.7067 24.2277C36.8042 24.1301 36.859 23.9979 36.859 23.86C36.859 23.7221 36.8042 23.5898 36.7067 23.4923C36.6091 23.3947 36.4769 23.34 36.339 23.34H26.459C26.3211 23.34 26.1888 23.3947 26.0913 23.4923C25.9937 23.5898 25.939 23.7221 25.939 23.86Z" fill="#7EB7DB"/>
<path d="M18.6582 26.4599H29.0582C29.1961 26.4599 29.3284 26.4051 29.4259 26.3076C29.5234 26.2101 29.5782 26.0778 29.5782 25.9399C29.5782 25.802 29.5234 25.6697 29.4259 25.5722C29.3284 25.4747 29.1961 25.4199 29.0582 25.4199H18.6582C18.5203 25.4199 18.388 25.4747 18.2905 25.5722C18.193 25.6697 18.1382 25.802 18.1382 25.9399C18.1382 26.0778 18.193 26.2101 18.2905 26.3076C18.388 26.4051 18.5203 26.4599 18.6582 26.4599Z" fill="#7EB7DB"/>
<path d="M36.341 27.5H26.98C26.8421 27.5 26.7098 27.5548 26.6123 27.6523C26.5147 27.7498 26.46 27.8821 26.46 28.02C26.46 28.1579 26.5147 28.2902 26.6123 28.3877C26.7098 28.4852 26.8421 28.54 26.98 28.54H36.341C36.4789 28.54 36.6111 28.4852 36.7087 28.3877C36.8062 28.2902 36.861 28.1579 36.861 28.02C36.861 27.8821 36.8062 27.7498 36.7087 27.6523C36.6111 27.5548 36.4789 27.5 36.341 27.5Z" fill="#7EB7DB"/>
<path d="M18.6582 30.62H31.1382C31.2761 30.62 31.4084 30.5652 31.5059 30.4677C31.6034 30.3701 31.6582 30.2379 31.6582 30.0999C31.6582 29.962 31.6034 29.8298 31.5059 29.7323C31.4084 29.6348 31.2761 29.58 31.1382 29.58H18.6582C18.5203 29.58 18.388 29.6348 18.2905 29.7323C18.193 29.8298 18.1382 29.962 18.1382 30.0999C18.1382 30.2379 18.193 30.3701 18.2905 30.4677C18.388 30.5652 18.5203 30.62 18.6582 30.62Z" fill="#7EB7DB"/>
<path d="M20.219 23.34C20.0811 23.34 19.9488 23.3947 19.8513 23.4923C19.7538 23.5898 19.699 23.7221 19.699 23.86C19.699 23.9979 19.7538 24.1301 19.8513 24.2277C19.9488 24.3252 20.0811 24.38 20.219 24.38H24.38C24.5179 24.38 24.6501 24.3252 24.7477 24.2277C24.8452 24.1301 24.9 23.9979 24.9 23.86C24.9 23.7221 24.8452 23.5898 24.7477 23.4923C24.6501 23.3947 24.5179 23.34 24.38 23.34H20.219Z" fill="#7EB7DB"/>
<path d="M36.3411 25.4199H31.1411C31.0032 25.4199 30.8709 25.4747 30.7734 25.5722C30.6759 25.6697 30.6211 25.802 30.6211 25.9399C30.6211 26.0778 30.6759 26.2101 30.7734 26.3076C30.8709 26.4051 31.0032 26.4599 31.1411 26.4599H36.3411C36.479 26.4599 36.6113 26.4051 36.7088 26.3076C36.8063 26.2101 36.8611 26.0778 36.8611 25.9399C36.8611 25.802 36.8063 25.6697 36.7088 25.5722C36.6113 25.4747 36.479 25.4199 36.3411 25.4199Z" fill="#7EB7DB"/>
<path d="M18.6582 28.54H24.8992C25.0371 28.54 25.1694 28.4852 25.2669 28.3877C25.3644 28.2902 25.4192 28.1579 25.4192 28.02C25.4192 27.8821 25.3644 27.7498 25.2669 27.6523C25.1694 27.5548 25.0371 27.5 24.8992 27.5H18.6582C18.5203 27.5 18.388 27.5548 18.2905 27.6523C18.193 27.7498 18.1382 27.8821 18.1382 28.02C18.1382 28.1579 18.193 28.2902 18.2905 28.3877C18.388 28.4852 18.5203 28.54 18.6582 28.54Z" fill="#7EB7DB"/>
<path d="M36.34 29.58H33.2199C33.082 29.58 32.9498 29.6348 32.8523 29.7323C32.7547 29.8298 32.7 29.962 32.7 30.0999C32.7 30.2379 32.7547 30.3701 32.8523 30.4677C32.9498 30.5652 33.082 30.62 33.2199 30.62H36.34C36.4779 30.62 36.6101 30.5652 36.7076 30.4677C36.8052 30.3701 36.86 30.2379 36.86 30.0999C36.86 29.962 36.8052 29.8298 36.7076 29.7323C36.6101 29.6348 36.4779 29.58 36.34 29.58Z" fill="#7EB7DB"/>
<path d="M18.6582 32.701H22.8192C22.9571 32.701 23.0894 32.6462 23.1869 32.5487C23.2844 32.4512 23.3392 32.3189 23.3392 32.181C23.3392 32.0431 23.2844 31.9108 23.1869 31.8133C23.0894 31.7158 22.9571 31.661 22.8192 31.661H18.6582C18.5203 31.661 18.388 31.7158 18.2905 31.8133C18.193 31.9108 18.1382 32.0431 18.1382 32.181C18.1382 32.3189 18.193 32.4512 18.2905 32.5487C18.388 32.6462 18.5203 32.701 18.6582 32.701Z" fill="#7EB7DB"/>
<path d="M24.8992 31.661C24.7612 31.661 24.629 31.7158 24.5314 31.8133C24.4339 31.9108 24.3792 32.0431 24.3792 32.181C24.3792 32.3189 24.4339 32.4512 24.5314 32.5487C24.629 32.6462 24.7612 32.701 24.8992 32.701H30.0992C30.2371 32.701 30.3693 32.6462 30.4668 32.5487C30.5644 32.4512 30.6192 32.3189 30.6192 32.181C30.6192 32.0431 30.5644 31.9108 30.4668 31.8133C30.3693 31.7158 30.2371 31.661 30.0992 31.661H24.8992Z" fill="#7EB7DB"/>
<path d="M23.0009 21H18.6004C18.3792 21 18.2004 20.8212 18.2004 20.6V19.4001C18.2004 19.1789 18.3792 19.0001 18.6004 19.0001H23.0009C23.2221 19.0001 23.4009 19.1789 23.4009 19.4001V20.6C23.4009 20.8212 23.2221 21 23.0009 21ZM19.0004 20.2H22.601V19.8001H19.0004V20.2Z" fill="#306DB5"/>
<path d="M22.6001 17.5998C22.3789 17.5998 22.2001 17.421 22.2001 17.1999C22.2001 16.4279 21.5721 15.7999 20.8002 15.7999C20.0282 15.7999 19.4003 16.4279 19.4003 17.1999C19.4003 17.421 19.2215 17.5998 19.0003 17.5998C18.7791 17.5998 18.6003 17.421 18.6003 17.1999C18.6003 15.9871 19.5875 15 20.8002 15C22.0129 15 23.0001 15.9871 23.0001 17.1999C23.0001 17.421 22.8213 17.5998 22.6001 17.5998Z" fill="#306DB5"/>
<path d="M19.0003 19.3996C18.7791 19.3996 18.6003 19.2208 18.6003 18.9997V17.1998C18.6003 16.9786 18.7791 16.7998 19.0003 16.7998C19.2215 16.7998 19.4003 16.9786 19.4003 17.1998V18.9997C19.4003 19.2208 19.2215 19.3996 19.0003 19.3996Z" fill="#306DB5"/>
<path d="M22.6002 19.8C22.379 19.8 22.2002 19.6212 22.2002 19.4V17.1998C22.2002 16.9786 22.379 16.7998 22.6002 16.7998C22.8214 16.7998 23.0001 16.9786 23.0001 17.1998V19.4C23.0001 19.6212 22.8214 19.8 22.6002 19.8Z" fill="#306DB5"/>
<path d="M21.4002 18.1997H20.2003C19.9791 18.1997 19.8003 18.0209 19.8003 17.7998C19.8003 17.5786 19.9791 17.3998 20.2003 17.3998H21.4002C21.6214 17.3998 21.8002 17.5786 21.8002 17.7998C21.8002 18.0209 21.6214 18.1997 21.4002 18.1997Z" fill="#306DB5"/>
<path d="M28.0192 33.741H18.6582C18.5203 33.741 18.388 33.7958 18.2905 33.8933C18.193 33.9908 18.1382 34.123 18.1382 34.261C18.1382 34.3989 18.193 34.5311 18.2905 34.6287C18.388 34.7262 18.5203 34.781 18.6582 34.781H28.0192C28.1571 34.781 28.2894 34.7262 28.3869 34.6287C28.4844 34.5311 28.5392 34.3989 28.5392 34.261C28.5392 34.123 28.4844 33.9908 28.3869 33.8933C28.2894 33.7958 28.1571 33.741 28.0192 33.741Z" fill="#7EB7DB"/>
<path d="M36.3412 31.661H32.1801C32.0422 31.661 31.91 31.7158 31.8125 31.8133C31.715 31.9108 31.6602 32.0431 31.6602 32.181C31.6602 32.3189 31.715 32.4512 31.8125 32.5487C31.91 32.6462 32.0422 32.701 32.1801 32.701H36.3412C36.4791 32.701 36.6113 32.6462 36.7089 32.5487C36.8064 32.4512 36.8611 32.3189 36.8611 32.181C36.8611 32.0431 36.8064 31.9108 36.7089 31.8133C36.6113 31.7158 36.4791 31.661 36.3412 31.661Z" fill="#7EB7DB"/>
<path d="M32.1801 38.9419H30.1001C29.9622 38.9419 29.8299 38.9967 29.7324 39.0942C29.6349 39.1917 29.5801 39.324 29.5801 39.4619C29.5801 39.5998 29.6349 39.7321 29.7324 39.8296C29.8299 39.9271 29.9622 39.9819 30.1001 39.9819H32.1801C32.318 39.9819 32.4502 39.9271 32.5478 39.8296C32.6453 39.7321 32.7001 39.5998 32.7001 39.4619C32.7001 39.324 32.6453 39.1917 32.5478 39.0942C32.4502 38.9967 32.318 38.9419 32.1801 38.9419Z" fill="#306DB5"/>
<path d="M36.341 38.9419H34.261C34.123 38.9419 33.9908 38.9967 33.8933 39.0942C33.7958 39.1917 33.741 39.324 33.741 39.4619C33.741 39.5998 33.7958 39.7321 33.8933 39.8296C33.9908 39.9271 34.123 39.9819 34.261 39.9819H36.341C36.4789 39.9819 36.6111 39.9271 36.7086 39.8296C36.8062 39.7321 36.861 39.5998 36.861 39.4619C36.861 39.324 36.8062 39.1917 36.7086 39.0942C36.6111 38.9967 36.4789 38.9419 36.341 38.9419Z" fill="#306DB5"/>
<path d="M36.8062 35.5889C36.7757 35.5275 36.7333 35.4727 36.6816 35.4277C36.6298 35.3828 36.5697 35.3484 36.5046 35.3268C36.4396 35.3051 36.3709 35.2966 36.3025 35.3016C36.2341 35.3066 36.1674 35.325 36.1062 35.3559L33.0952 36.8609H31.9802L31.6042 36.1079C31.5673 36.0342 31.5135 35.9703 31.4471 35.9215C31.3806 35.8727 31.3036 35.8403 31.2222 35.8271C31.1409 35.8139 31.0576 35.8203 30.9791 35.8457C30.9007 35.871 30.8294 35.9146 30.7712 35.9729L29.7312 37.0129C29.6337 37.1105 29.579 37.2428 29.5791 37.3808C29.5792 37.5187 29.6341 37.651 29.7317 37.7484C29.8293 37.8459 29.9616 37.9006 30.0995 37.9005C30.2375 37.9004 30.3697 37.8455 30.4672 37.7479L30.9972 37.2179L31.1972 37.6129C31.2404 37.6992 31.3068 37.7717 31.3889 37.8224C31.4711 37.8731 31.5657 37.8999 31.6622 37.8999H33.2222C33.3031 37.9 33.3828 37.8811 33.4552 37.8449L36.5752 36.2849C36.6978 36.223 36.791 36.115 36.8343 35.9846C36.8775 35.8542 36.8674 35.7119 36.8062 35.5889Z" fill="#306DB5"/>
</g>
<defs>
<clipPath id="clip0_1849_1783">
<rect width="55" height="55" fill="white"/>
</clipPath>
</defs>
</svg>
