<svg xmlns="http://www.w3.org/2000/svg" xmlns:xlink="http://www.w3.org/1999/xlink" width="1377.522" height="1333.197" viewBox="0 0 1377.522 1333.197">
  <defs>
    <clipPath id="clip-path">
      <path id="Path_8690" data-name="Path 8690" d="M714.26,1409.958,1797.325,1264l158.6-1044.793L872.856,365.164Z" fill="none" stroke="#0063b0" stroke-width="0.25"/>
    </clipPath>
    <linearGradient id="linear-gradient" x1="6.618" y1="-8.185" x2="6.62" y2="-8.185" gradientUnits="objectBoundingBox">
      <stop offset="0" stop-color="#0052a2"/>
      <stop offset="1" stop-color="#10b2c1"/>
    </linearGradient>
    <linearGradient id="linear-gradient-2" x1="6.922" y1="-8.611" x2="6.924" y2="-8.611" xlink:href="#linear-gradient"/>
    <linearGradient id="linear-gradient-3" x1="7.257" y1="-9.082" x2="7.259" y2="-9.082" xlink:href="#linear-gradient"/>
    <linearGradient id="linear-gradient-4" x1="7.628" y1="-9.604" x2="7.63" y2="-9.604" xlink:href="#linear-gradient"/>
    <linearGradient id="linear-gradient-5" x1="8.04" y1="-10.186" x2="8.042" y2="-10.186" xlink:href="#linear-gradient"/>
    <linearGradient id="linear-gradient-6" x1="8.501" y1="-10.839" x2="8.504" y2="-10.839" xlink:href="#linear-gradient"/>
    <linearGradient id="linear-gradient-7" x1="9.021" y1="-11.576" x2="9.023" y2="-11.576" xlink:href="#linear-gradient"/>
    <clipPath id="clip-path-2">
      <path id="Path_8688" data-name="Path 8688" d="M479.409,948.047l734.772-99.021,106.305-700.312L585.714,247.734Z" fill="none" stroke="#0063b0" stroke-width="0.25"/>
    </clipPath>
    <clipPath id="clip-path-3">
      <path id="Path_29" data-name="Path 29" d="M975.776,727.454c-18.219,2.325-35.238-3.341-48.4-18.339l-12.8-14.592-.836-.957L711.409,462.2l-165.118,59.23-27.835,52.6c-30.209,57.076-79.869,74.743-117.641,52.105-9.444-5.647-15.631-16.346-21.037-26.473-16.23-30.422-9.969-85.095,12.677-127.894L538.54,195.752c.19-.391.434-.741.639-1.108l1.146-2.193,13.536-25.667C591.193,97.968,667.3,59.716,704.407,101.019c.671.782,46.026,52.021,46.573,52.628.241.283,20.031,22.916,20.221,23.157L939.552,369.1,1062.624,509.68c12.261,14.3,20.318,35.55,21.259,57.449,1.486,33.839-8.128,75.3-31.891,107.3-22.66,30.532-50.111,49.345-75.356,52.913Z" transform="translate(0)" fill="none" stroke="#0063b0" stroke-width="0.25"/>
    </clipPath>
    <linearGradient id="linear-gradient-8" x1="7.681" y1="-7.268" x2="7.683" y2="-7.268" xlink:href="#linear-gradient"/>
    <linearGradient id="linear-gradient-9" x1="10.286" y1="-13.382" x2="10.289" y2="-13.382" xlink:href="#linear-gradient"/>
    <linearGradient id="linear-gradient-10" x1="11.067" y1="-14.503" x2="11.07" y2="-14.503" xlink:href="#linear-gradient"/>
    <linearGradient id="linear-gradient-11" x1="11.98" y1="-15.82" x2="11.984" y2="-15.82" xlink:href="#linear-gradient"/>
    <linearGradient id="linear-gradient-12" x1="13.062" y1="-17.387" x2="13.065" y2="-17.387" xlink:href="#linear-gradient"/>
    <linearGradient id="linear-gradient-13" x1="14.363" y1="-19.284" x2="14.367" y2="-19.284" xlink:href="#linear-gradient"/>
    <linearGradient id="linear-gradient-14" x1="15.955" y1="-21.627" x2="15.96" y2="-21.627" xlink:href="#linear-gradient"/>
    <linearGradient id="linear-gradient-15" x1="17.951" y1="-24.589" x2="17.956" y2="-24.589" xlink:href="#linear-gradient"/>
    <linearGradient id="linear-gradient-16" x1="20.519" y1="-28.446" x2="20.524" y2="-28.446" xlink:href="#linear-gradient"/>
    <linearGradient id="linear-gradient-17" x1="23.94" y1="-33.676" x2="23.947" y2="-33.676" xlink:href="#linear-gradient"/>
    <linearGradient id="linear-gradient-18" x1="28.71" y1="-40.785" x2="28.718" y2="-40.785" xlink:href="#linear-gradient"/>
    <linearGradient id="linear-gradient-19" x1="35.794" y1="-46.828" x2="35.803" y2="-46.828" xlink:href="#linear-gradient"/>
    <linearGradient id="linear-gradient-20" x1="43.49" y1="-52.847" x2="43.502" y2="-52.847" xlink:href="#linear-gradient"/>
    <linearGradient id="linear-gradient-21" x1="43.517" y1="-60.226" x2="43.529" y2="-60.226" xlink:href="#linear-gradient"/>
  </defs>
  <g id="Group_4762" data-name="Group 4762" transform="translate(-735.651 20.795) rotate(-7)">
    <g id="Group_11" data-name="Group 11" transform="translate(0 0)">
      <g id="Group_10" data-name="Group 10" clip-path="url(#clip-path)">
        <path id="Path_22" data-name="Path 22" d="M829.744,721.172l-45.877,86.7c-32.427,61.267-83.5,100.7-131.138,107.123-20.648,2.783-40.651-.638-58.214-11.168-14.512-8.7-25.99-21.458-34.32-37.041-14.9-27.915-19.7-64.946-13.727-104.274a255.815,255.815,0,0,1,27.043-80.764l211.353-399.37c.317-.6.682-1.136,1-1.738l1.754-3.343,19.816-37.588c35.2-64.877,88.989-104.929,138.506-111.6,31.3-4.218,60.895,4.9,83,29.526l68.788,77.7,461.638,527.3c18.858,22.054,29.076,52.192,30.545,85.89a219.393,219.393,0,0,1-2.408,42.375c-6.144,40.477-23.108,82.534-50.062,118.831-33.558,45.2-75.616,71.8-114.7,77.063-31.353,4.225-60.8-5.275-82.41-29.908l-20.257-23.032-1.281-1.5L994.859,661.964h0l323.935,370.379,1.281,1.5,20.257,23.032c21.613,24.633,51.057,34.134,82.41,29.908,39.088-5.267,81.146-31.867,114.7-77.062,26.953-36.3,43.918-78.357,50.062-118.831a219.374,219.374,0,0,0,2.408-42.375c-1.47-33.7-11.688-63.838-30.545-85.89l-461.638-527.3-68.788-77.7c-22.111-24.624-51.7-33.744-83-29.526-49.516,6.673-103.308,46.728-138.506,111.6l-19.816,37.588-1.754,3.343c-.32.6-.685,1.138-1,1.738L573.512,681.745a255.815,255.815,0,0,0-27.043,80.764c-5.97,39.328-1.178,76.36,13.727,104.274,8.332,15.582,19.81,28.338,34.32,37.041,17.562,10.53,37.566,13.95,58.214,11.168,47.642-6.42,98.711-45.857,131.138-107.123l45.877-86.7Z" transform="translate(236.568 195.572)" stroke="#0063b0" stroke-width="0.25" fill="url(#linear-gradient)"/>
        <path id="Path_23" data-name="Path 23" d="M954.332,633.383,1260.9,983.933l1.222,1.388,19.174,21.843c20.427,23.278,48.106,32.218,77.6,28.244,37.134-5,77.144-30.489,109.172-73.615a255.96,255.96,0,0,0,47.2-112.586,211.723,211.723,0,0,0,2.325-40.914c-1.4-32.006-11.3-60.9-29.216-81.845L1314.607,527.965l-237.719-271.52c-.032-.044-28.682-32.8-28.735-32.817-.063-.088-65.5-74.017-65.6-74.1-20.749-23.127-48.575-31.612-78.086-27.635-47.607,6.416-99.593,45.261-133.295,107.378l-18.919,35.887-1.666,3.163c-.314.552-.639,1.082-.929,1.63L547.6,651.7a246.544,246.544,0,0,0-25.988,77.765c-5.683,37.438-1.3,72.758,12.776,99.128,7.905,14.791,18.635,27.256,32.413,35.55,16.937,10.145,36.186,13.475,56.01,10.8,44.779-6.035,92.489-42.681,123.094-100.524l43.308-81.833h0l-43.308,81.833c-30.607,57.843-78.317,94.49-123.094,100.524-19.824,2.672-39.074-.658-56.01-10.8-13.779-8.294-24.508-20.759-32.413-35.55-14.078-26.37-18.46-61.689-12.776-99.128A246.544,246.544,0,0,1,547.6,651.7L749.659,269.949c.291-.549.616-1.078.929-1.63l1.666-3.163,18.919-35.887c33.7-62.117,85.688-100.962,133.295-107.378,29.511-3.977,57.338,4.508,78.086,27.635.1.085,65.535,74.015,65.6,74.1.053.019,28.7,32.773,28.735,32.817l237.719,271.52,173.769,198.484c17.915,20.943,27.812,49.838,29.216,81.845a211.723,211.723,0,0,1-2.325,40.914,255.96,255.96,0,0,1-47.2,112.586c-32.028,43.128-72.037,68.61-109.172,73.615-29.492,3.974-57.171-4.966-77.6-28.244l-19.174-21.843-1.222-1.388L954.332,633.383Z" transform="translate(277.093 224.144)" stroke="#0063b0" stroke-width="0.25" fill="url(#linear-gradient-2)"/>
        <path id="Path_24" data-name="Path 24" d="M913.818,604.814l289.19,330.677,1.157,1.323,18.133,20.625c19.231,21.915,45.151,30.3,72.788,26.579,35.174-4.74,73.126-29.1,103.6-70.163a241.467,241.467,0,0,0,44.361-106.323,204.255,204.255,0,0,0,2.241-39.475c-1.341-30.315-10.924-57.918-27.906-77.8L1252.066,501.442,1025.9,243.153c-.042-.093-27.234-31.148-27.295-31.239-.163-.173-62.251-70.3-62.444-70.522-19.392-21.6-45.451-29.449-73.164-25.712C817.3,121.84,767.12,159.474,734.93,218.8l-18.019,34.189-1.588,3.006c-.291.549-.608,1.029-.9,1.554L521.721,621.694a237.423,237.423,0,0,0-24.956,74.821c-5.39,35.511-1.422,69.071,11.819,93.881,7.492,14.043,17.461,26.176,30.533,34.029,16.322,9.781,34.825,13.029,53.833,10.467,41.9-5.647,86.247-39.527,115.034-93.9l40.72-76.969h0l-40.72,76.969c-28.788,54.374-73.134,88.254-115.034,93.9-19.008,2.562-37.513-.686-53.833-10.467-13.072-7.853-23.041-19.985-30.533-34.029-13.241-24.809-17.209-58.369-11.819-93.881a237.423,237.423,0,0,1,24.956-74.821L714.428,257.545c.287-.525.6-1.005.9-1.554l1.588-3.006L734.93,218.8C767.12,159.474,817.307,121.837,863,115.681c27.712-3.735,53.772,4.107,73.164,25.712.193.217,62.282,70.348,62.444,70.522.061.09,27.253,31.146,27.295,31.239l226.162,258.288,165.312,188.819c16.982,19.879,26.565,47.482,27.906,77.8a204.255,204.255,0,0,1-2.241,39.475,241.467,241.467,0,0,1-44.361,106.323c-30.47,41.062-68.422,65.423-103.6,70.163-27.638,3.725-53.559-4.664-72.788-26.579l-18.133-20.625-1.157-1.323L913.818,604.814Z" transform="translate(317.607 252.712)" stroke="#0063b0" stroke-width="0.25" fill="url(#linear-gradient-3)"/>
        <path id="Path_25" data-name="Path 25" d="M873.3,576.258l271.826,310.823,1.1,1.237,17.05,19.432c18.04,20.556,42.2,28.384,67.969,24.911,33.223-4.477,69.128-27.737,98.072-66.736a226.838,226.838,0,0,0,41.5-100,197.192,197.192,0,0,0,2.162-38.091c-1.257-28.627-10.54-54.984-26.584-73.7l-156.848-179.2-214.6-245.111c-.08-.088-25.79-29.473-25.9-29.58-.226-.261-58.958-66.644-59.251-66.944-18.048-20.1-42.347-27.314-68.265-23.821-43.777,5.9-92.17,42.352-122.842,98.889l-17.12,32.488-1.5,2.823c-.268.522-.565.975-.848,1.475l-183.386,346.5a228.6,228.6,0,0,0-23.909,71.883c-5.1,33.609-1.537,65.423,10.878,88.67,7.084,13.247,16.3,25.118,28.63,32.514,15.707,9.412,33.471,12.584,51.664,10.132,39.017-5.258,80.012-36.383,106.951-87.306l38.149-72.081h0l-38.149,72.081c-26.939,50.923-67.936,82.048-106.951,87.306-18.193,2.452-35.957-.72-51.664-10.132-12.331-7.4-21.546-19.266-28.63-32.514-12.415-23.247-15.979-55.061-10.878-88.67a228.649,228.649,0,0,1,23.909-71.883l183.386-346.5c.283-.5.58-.953.848-1.475l1.5-2.823,17.12-32.488c30.674-56.537,79.065-92.989,122.842-98.889,25.918-3.493,50.217,3.725,68.265,23.821.293.3,59.025,66.684,59.251,66.944.115.107,25.824,29.492,25.9,29.58l214.6,245.111,156.848,179.2c16.045,18.719,25.327,45.076,26.584,73.7a197.221,197.221,0,0,1-2.162,38.091,226.838,226.838,0,0,1-41.5,100c-28.944,39-64.849,62.259-98.072,66.736-25.773,3.473-49.931-4.357-67.969-24.911l-17.05-19.432-1.1-1.237L873.3,576.258Z" transform="translate(358.128 281.269)" stroke="#0063b0" stroke-width="0.25" fill="url(#linear-gradient-4)"/>
        <path id="Path_26" data-name="Path 26" d="M832.8,547.723,1087.248,838.67l1.029,1.174,15.99,18.217c16.849,19.192,39.259,26.467,63.179,23.244,31.258-4.213,65.1-26.353,92.493-63.26,21.015-28.291,33.789-61.708,38.651-93.739a190.448,190.448,0,0,0,2.089-36.675c-1.189-26.96-10.158-52.023-25.259-69.633l-148.41-169.533L923.979,216.534c-.113-.129-24.346-27.8-24.47-27.975-.325-.345-55.713-62.906-56.1-63.364-16.7-18.59-39.227-25.187-63.338-21.938-41.851,5.64-88.468,40.944-117.624,94.692l-16.236,30.765L644.8,231.4c-.26.473-.533.9-.793,1.372L469.957,561.683a219.328,219.328,0,0,0-22.887,68.942c-4.81,31.685-1.636,61.731,9.944,83.439,6.657,12.456,15.125,24.038,26.728,31,15.089,9.05,32.1,12.155,49.47,9.814,36.123-4.868,73.791-33.285,98.894-80.726l35.58-67.219h0l-35.58,67.219c-25.1,47.441-62.77,75.858-98.894,80.726-17.37,2.341-34.383-.764-49.47-9.814-11.6-6.96-20.071-18.542-26.728-31-11.58-21.708-14.753-51.754-9.944-83.439a219.328,219.328,0,0,1,22.887-68.942L644.012,232.776c.26-.473.532-.9.793-1.372l1.408-2.69,16.236-30.765c29.156-53.751,75.773-89.052,117.624-94.692,24.114-3.25,46.643,3.348,63.338,21.938.384.458,55.772,63.018,56.1,63.364.124.178,24.357,27.846,24.47,27.975l203.03,231.932L1275.419,618c15.1,17.61,24.07,42.673,25.259,69.633a190.448,190.448,0,0,1-2.089,36.675c-4.862,32.031-17.636,65.448-38.651,93.739-27.393,36.907-61.235,59.047-92.493,63.26-23.921,3.224-46.33-4.051-63.179-23.244l-15.99-18.217-1.029-1.174L832.8,547.723Z" transform="translate(398.625 309.803)" stroke="#0063b0" stroke-width="0.25" fill="url(#linear-gradient-5)"/>
        <path id="Path_27" data-name="Path 27" d="M792.315,519.191,1029.4,790.262l.945,1.111,14.929,17c15.656,17.851,36.318,24.584,58.391,21.61,29.3-3.948,61.076-24.993,86.937-59.842,19.515-26.257,31.243-57.472,35.783-87.375a183.606,183.606,0,0,0,2.012-35.333c-1.126-25.268-9.8-49.037-23.929-65.585L1064.5,421.978l-191.473-218.7c-.128-.154-22.89-26.2-23.053-26.37-.384-.458-52.438-59.245-52.9-59.788-15.361-17.094-36.134-23.087-58.449-20.08-39.915,5.379-84.766,39.556-112.405,90.5L610.895,216.6l-1.325,2.511c-.239.467-.506.845-.726,1.312L444.111,531.661a210.56,210.56,0,0,0-21.889,66.1c-4.517,29.758-1.724,58.007,9.033,78.14,6.225,11.69,13.924,22.988,24.822,29.507a71.981,71.981,0,0,0,47.311,9.492c33.217-4.476,67.549-30.184,90.819-74.142L627.2,578.4h0l-32.992,62.356c-23.27,43.958-57.6,69.666-90.819,74.142a71.978,71.978,0,0,1-47.311-9.492c-10.9-6.518-18.6-17.817-24.822-29.507-10.758-20.133-13.55-48.382-9.033-78.14a210.548,210.548,0,0,1,21.889-66.1L608.844,220.427c.22-.467.487-.845.726-1.312l1.325-2.511,15.319-29.064c27.639-50.944,72.49-85.121,112.405-90.5,22.315-3.007,43.088,2.986,58.449,20.08.465.544,52.519,59.331,52.9,59.788.163.17,22.925,26.216,23.053,26.37l191.473,218.7,139.974,159.868c14.128,16.549,22.8,40.317,23.929,65.585a183.625,183.625,0,0,1-2.012,35.333c-4.539,29.9-16.27,61.119-35.783,87.375-25.861,34.849-57.642,55.894-86.937,59.842-22.073,2.975-42.735-3.759-58.391-21.61l-14.929-17-.945-1.111L792.315,519.191Z" transform="translate(439.11 338.336)" stroke="#0063b0" stroke-width="0.25" fill="url(#linear-gradient-6)"/>
        <path id="Path_28" data-name="Path 28" d="M751.857,490.694l219.71,251.2.9,1.045,13.863,15.808c14.465,16.475,33.38,22.655,53.6,19.93,27.325-3.682,57.033-23.626,81.363-56.4,17.994-24.229,28.694-53.2,32.906-80.953a176.717,176.717,0,0,0,1.927-34.049c-1.023-23.585-9.382-46.083-22.584-61.518L1002.031,395.524l-179.912-205.5c-.178-.195-21.446-24.523-21.655-24.762-.45-.521-49.153-55.533-49.731-56.208-14.016-15.6-33.02-21-53.527-18.24-37.96,5.116-81.061,38.2-107.181,86.322l-14.42,27.39-1.222,2.326c-.237.443-.479.793-.694,1.209L418.267,501.731A201.848,201.848,0,0,0,397.4,564.94c-4.222,27.814-1.812,54.254,8.1,72.83,5.834,10.918,12.774,21.879,22.94,27.988a68.76,68.76,0,0,0,45.18,9.217c30.289-4.082,61.3-27.132,82.694-67.582L586.742,549.9h0l-30.425,57.492c-21.4,40.451-52.405,63.5-82.694,67.582a68.76,68.76,0,0,1-45.18-9.217c-10.166-6.11-17.106-17.071-22.94-27.988-9.914-18.576-12.322-45.016-8.1-72.83a201.848,201.848,0,0,1,20.864-63.209L573.69,208.065c.214-.416.456-.766.694-1.209l1.222-2.326,14.42-27.39c26.119-48.119,69.222-81.207,107.181-86.322,20.507-2.764,39.511,2.638,53.527,18.24.578.675,49.281,55.687,49.731,56.208.208.239,21.477,24.568,21.655,24.762l179.912,205.5,131.513,150.227c13.2,15.435,21.561,37.933,22.584,61.518a176.774,176.774,0,0,1-1.927,34.049c-4.213,27.753-14.912,56.724-32.906,80.953-24.33,32.774-54.04,52.718-81.363,56.4-20.223,2.725-39.141-3.455-53.6-19.93l-13.863-15.808-.9-1.045-219.71-251.2Z" transform="translate(479.568 366.832)" stroke="#0063b0" stroke-width="0.25" fill="url(#linear-gradient-7)"/>
        <g id="Group_9" data-name="Group 9" transform="translate(370.327 261.795)" opacity="0.15">
          <g id="Group_8" data-name="Group 8" transform="translate(0 0)">
            <g id="Group_7" data-name="Group 7" clip-path="url(#clip-path-2)">
              <g id="Group_6" data-name="Group 6" transform="translate(149.691 133.525)">
                <g id="Group_5" data-name="Group 5" transform="translate(0 0)" clip-path="url(#clip-path-3)">
                  <path id="Path_8544" data-name="Path 8544" d="M935.23,1477.931l886.318,124.281L1755.851,394.6,869.533,270.319Z" transform="translate(282.278 -1167.686) rotate(38.551)" stroke="#0063b0" stroke-width="0.25" fill="url(#linear-gradient-8)"/>
                </g>
                <path id="Path_30" data-name="Path 30" d="M975.776,727.454c-18.219,2.325-35.238-3.341-48.4-18.339l-12.8-14.592-.836-.957L711.409,462.2l-165.118,59.23-27.835,52.6c-30.209,57.076-79.869,74.743-117.641,52.105-9.444-5.647-15.631-16.346-21.037-26.473-16.23-30.422-9.969-85.095,12.677-127.894L538.54,195.752c.19-.391.434-.741.639-1.108l1.146-2.193,13.536-25.667C591.193,97.968,667.3,59.716,704.407,101.019c.671.782,46.026,52.021,46.573,52.628.241.283,20.031,22.916,20.221,23.157L939.552,369.1,1062.624,509.68c12.261,14.3,20.318,35.55,21.259,57.449,1.486,33.839-8.128,75.3-31.891,107.3-22.66,30.532-50.111,49.345-75.356,52.913Z" transform="translate(0 0)" fill="none" stroke="#0063b0" stroke-width="0.25"/>
              </g>
            </g>
            <path id="Path_8689" data-name="Path 8689" d="M479.409,948.047l734.772-99.021,106.305-700.312L585.714,247.734Z" fill="none" stroke="#0063b0" stroke-width="0.25"/>
          </g>
        </g>
        <path id="Path_31" data-name="Path 31" d="M671,433.749,855.953,645.219l.771.891,11.757,13.4c12.075,13.76,27.535,18.853,44.082,16.623,23.379-3.151,48.929-20.921,70.174-49.529,14.963-20.152,23.62-44.616,27.178-68.054a164.025,164.025,0,0,0,1.774-31.562c-.881-20.18-8.639-40.16-19.954-53.374L877.12,342.7,720.334,163.583c-.209-.239-18.536-21.2-18.806-21.528-.608-.719-42.613-48.161-43.387-49.028C646.764,80.361,631.258,76.1,614.358,78.374c-33.991,4.581-73.619,35.637-96.634,78.085l-12.637,23.967-1.06,2.013c-.181.315-.4.66-.608,1.029L366.688,441.86a185.111,185.111,0,0,0-18.912,57.674c-3.627,23.9-1.937,46.618,6.3,62.053,5,9.355,10.438,19.741,19.153,24.977a62.481,62.481,0,0,0,40.894,8.7c24.4-3.288,48.826-21.164,66.519-54.571l25.245-47.737h0l-25.245,47.737c-17.693,33.409-42.123,51.283-66.519,54.571a62.481,62.481,0,0,1-40.894-8.7c-8.715-5.235-14.157-15.622-19.153-24.977-8.24-15.436-9.931-38.156-6.3-62.053a185.111,185.111,0,0,1,18.912-57.674l136.73-258.392c.206-.369.428-.714.608-1.029l1.06-2.013,12.637-23.967c23.015-42.447,62.643-73.5,96.634-78.085,16.9-2.278,32.405,1.99,43.783,14.654.774.867,42.779,48.309,43.387,49.028.27.327,18.6,21.289,18.806,21.528L877.12,342.7,991.735,473.615c11.315,13.213,19.073,33.193,19.954,53.374a164.04,164.04,0,0,1-1.774,31.562c-3.558,23.438-12.215,47.9-27.178,68.054-21.245,28.608-46.794,46.378-70.174,49.529-16.547,2.23-32.007-2.863-44.082-16.623l-11.757-13.4-.771-.891L671,433.749Z" transform="translate(560.421 423.778)" stroke="#0063b0" stroke-width="0.25" fill="url(#linear-gradient-9)"/>
        <path id="Path_32" data-name="Path 32" d="M630.611,405.342,798.2,596.961l.709.8,10.679,12.181c10.9,12.416,24.656,16.981,39.386,15,21.384-2.882,44.812-19.57,64.5-46.088,13.443-18.108,21.1-40.271,24.333-61.542a158.173,158.173,0,0,0,1.7-30.4c-.812-18.514-8.239-37.2-18.625-49.329L814.725,316.307,669.473,150.45c-.218-.309-17.084-19.574-17.391-19.92-.69-.806-39.339-44.5-40.209-45.475-10.074-11.212-23.838-14.937-38.928-12.9-31.964,4.308-69.889,34.447-91.366,74.023l-11.716,22.241-.98,1.856c-.179.315-.375.608-.536.923L340.917,411.968a177.224,177.224,0,0,0-17.943,54.954c-3.328,21.921-1.966,42.736,5.442,56.6,4.584,8.583,9.255,18.711,17.245,23.486,12.2,7.316,25.53,10.312,38.768,8.528,21.409-2.885,42.585-18.277,58.392-48.136L465.5,464.549h0L442.822,507.4c-15.807,29.858-36.983,45.251-58.392,48.136-13.238,1.784-26.564-1.212-38.768-8.528-7.991-4.775-12.661-14.9-17.245-23.486-7.41-13.864-8.77-34.68-5.442-56.6a177.224,177.224,0,0,1,17.943-54.954L468.348,171.2c.162-.315.358-.608.536-.923l.98-1.856,11.716-22.241c21.477-39.576,59.4-69.716,91.366-74.023,15.09-2.034,28.854,1.692,38.928,12.9.87.977,39.518,44.669,40.209,45.475.306.346,17.172,19.61,17.391,19.92L814.725,316.307,920.877,437.585C931.262,449.71,938.69,468.4,939.5,486.914a158.173,158.173,0,0,1-1.7,30.4c-3.229,21.271-10.89,43.434-24.333,61.542-19.689,26.518-43.118,43.207-64.5,46.088-14.73,1.985-28.488-2.58-39.386-15l-10.679-12.181-.709-.8L630.611,405.342Z" transform="translate(600.814 452.185)" stroke="#0063b0" stroke-width="0.25" fill="url(#linear-gradient-10)"/>
        <path id="Path_33" data-name="Path 33" d="M590.263,376.954l150.2,171.768.646.716L750.73,560.4c9.715,11.073,21.787,15.115,34.709,13.374,19.385-2.612,40.689-18.243,58.833-42.685,11.9-16.02,18.572-35.828,21.466-54.89a152.705,152.705,0,0,0,1.618-29.319c-.744-16.848-7.878-34.243-17.3-45.283L752.347,289.988,618.678,137.311c-.268-.353-15.659-17.9-15.992-18.312-.751-.9-36.072-40.789-37.044-41.846-8.786-9.8-20.833-13.008-34.136-11.215-29.889,4.028-66.119,33.316-86,69.968l-10.836,20.545-.876,1.672c-.158.288-.333.579-.486.842L315.182,382.144a169.677,169.677,0,0,0-16.985,52.29c-3.023,19.916-1.978,38.788,4.6,51.092,4.155,7.817,8.081,17.607,15.327,21.946,11.676,7.005,24.256,10.087,36.634,8.419,18.42-2.482,36.4-15.486,50.291-41.743l20.105-37.987h0l-20.105,37.987c-13.893,26.256-31.87,39.26-50.291,41.743-12.378,1.668-24.958-1.414-36.634-8.419-7.246-4.339-11.174-14.129-15.327-21.946-6.573-12.3-7.619-31.176-4.6-51.092a169.724,169.724,0,0,1,16.985-52.29L433.3,158.966c.154-.263.329-.554.486-.842l.876-1.672L445.5,135.907c19.886-36.652,56.118-65.941,86-69.968,13.3-1.793,25.35,1.419,34.136,11.215.972,1.057,36.292,40.949,37.044,41.846.333.414,15.725,17.959,15.992,18.312L752.347,289.988,850.061,401.6c9.418,11.041,16.552,28.436,17.3,45.283a152.705,152.705,0,0,1-1.618,29.319c-2.893,19.062-9.566,38.87-21.466,54.89-18.144,24.442-39.448,40.072-58.833,42.685-12.922,1.741-24.993-2.3-34.709-13.374l-9.618-10.966-.646-.716-150.2-171.768Z" transform="translate(641.162 480.573)" stroke="#0063b0" stroke-width="0.25" fill="url(#linear-gradient-11)"/>
        <path id="Path_34" data-name="Path 34" d="M550,348.65,682.844,500.542l.58.65,8.554,9.775c8.525,9.718,18.92,13.239,30.047,11.74,17.381-2.342,36.545-16.939,53.132-39.291,10.343-13.935,16.044-31.34,18.6-48.168a148.52,148.52,0,0,0,1.544-28.335c-.662-15.159-7.5-31.282-15.97-41.213L690.055,263.733,567.948,124.258c-.285-.349-14.189-16.274-14.56-16.686-.828-1-32.821-37.1-33.865-38.29-7.533-8.391-17.884-11.107-29.4-9.554-27.77,3.742-62.335,32.291-80.61,65.971l-9.942,18.872-.792,1.489c-.133.261-.3.5-.439.788L289.559,352.354a162.718,162.718,0,0,0-16.105,49.8c-2.712,17.866-1.953,34.714,3.777,45.458,3.748,7,6.93,16.5,13.461,20.452,11.146,6.68,22.929,9.919,34.4,8.374,15.42-2.078,30.279-12.806,42.275-35.46l17.519-33.124h0l-17.519,33.124c-12,22.654-26.855,33.381-42.275,35.46-11.47,1.546-23.253-1.694-34.4-8.374-6.531-3.95-9.713-13.453-13.461-20.452-5.73-10.744-6.489-27.592-3.777-45.458a162.769,162.769,0,0,1,16.105-49.8L398.336,146.848c.137-.285.306-.527.439-.788l.792-1.489,9.942-18.872c18.274-33.68,52.84-62.229,80.61-65.971,11.52-1.553,21.871,1.164,29.4,9.554,1.044,1.194,33.037,37.286,33.865,38.29.371.412,14.274,16.337,14.56,16.686L690.055,263.733,779.328,365.7c8.474,9.932,15.308,26.055,15.97,41.213a148.52,148.52,0,0,1-1.544,28.335c-2.554,16.828-8.257,34.234-18.6,48.168-16.586,22.352-35.751,36.948-53.132,39.291-11.127,1.5-21.522-2.021-30.047-11.74l-8.554-9.775-.58-.65L550,348.65Z" transform="translate(681.426 508.876)" stroke="#0063b0" stroke-width="0.25" fill="url(#linear-gradient-12)"/>
        <path id="Path_35" data-name="Path 35" d="M509.777,320.413,625.24,452.453l.518.562,7.493,8.557c7.361,8.389,16.123,11.406,25.486,10.145,15.352-2.069,32.315-15.643,47.343-35.888,8.775-11.836,13.535-26.754,15.742-41.292a143.887,143.887,0,0,0,1.442-27.529c-.578-13.47-7.093-28.35-14.646-37.141l-80.792-92.33L517.258,111.3c-.314-.42-12.724-14.627-13.141-15.1-.914-1.067-29.532-33.411-30.7-34.687-6.307-7.029-14.994-9.282-24.752-7.967-25.571,3.446-58.485,31.393-75.119,62.07l-9.031,17.121-.716,1.359a6.268,6.268,0,0,0-.388.685L263.969,322.678c-7.111,13.432-12.75,30.947-15.243,47.37-2.394,15.77-1.887,30.534,3.009,39.7,3.336,6.229,5.749,15.444,11.558,18.936,10.643,6.375,21.579,9.914,32.092,8.5,12.43-1.675,24.267-10.276,34.328-29.3l14.95-28.262h0l-14.95,28.262c-10.061,19.02-21.9,27.622-34.328,29.3-10.513,1.417-21.448-2.122-32.092-8.5-5.809-3.492-8.221-12.707-11.558-18.936-4.9-9.164-5.4-23.928-3.009-39.7,2.493-16.423,8.133-33.939,15.243-47.37l99.446-187.906a6.268,6.268,0,0,1,.388-.685l.716-1.359,9.031-17.121c16.634-30.677,49.548-58.624,75.119-62.07,9.758-1.315,18.447.938,24.752,7.967,1.165,1.276,29.782,33.62,30.7,34.687.417.478,12.827,14.685,13.141,15.1L627.826,237.538l80.792,92.33c7.553,8.792,14.067,23.671,14.646,37.141a143.887,143.887,0,0,1-1.442,27.529c-2.207,14.538-6.969,29.456-15.742,41.292-15.028,20.245-31.991,33.819-47.343,35.888-9.363,1.262-18.126-1.755-25.486-10.145l-7.493-8.557-.518-.562L509.777,320.413Z" transform="translate(721.648 537.113)" stroke="#0063b0" stroke-width="0.25" fill="url(#linear-gradient-13)"/>
        <path id="Path_36" data-name="Path 36" d="M469.643,292.279l98.1,112.164.432.5,6.452,7.339c6.186,7.062,13.342,9.584,20.963,8.557,13.307-1.793,28.033-14.4,41.482-32.513,7.218-9.717,11.083-22.108,12.939-34.334a140.451,140.451,0,0,0,1.321-26.783c-.51-11.8-6.716-25.366-13.319-33.072L565.66,211.473,466.676,98.409c-.348-.439-11.3-12.973-11.728-13.473-.991-1.179-26.281-29.724-27.539-31.131-5.12-5.7-12.191-7.515-20.213-6.434-23.276,3.137-54.564,30.634-69.51,58.2l-8.136,15.445-.633,1.177c-.106.209-.23.4-.333.581L238.456,293.059c-6.529,12.341-12.054,29.389-14.436,45.08-2.069,13.627-1.766,26.228,2.3,33.84,2.908,5.46,4.571,14.389,9.639,17.421,10.132,6.073,20.08,10.118,29.524,8.845,9.513-1.282,18.516-7.96,26.681-23.388l12.358-23.371h0L292.17,374.857C284,390.285,275,396.963,265.489,398.245c-9.445,1.273-19.392-2.772-29.524-8.845-5.068-3.032-6.732-11.961-9.639-17.421-4.072-7.611-4.373-20.212-2.3-33.84,2.382-15.692,7.907-32.739,14.436-45.08l90.129-170.285c.1-.184.227-.372.333-.581l.633-1.177,8.136-15.445C352.635,78,383.921,50.507,407.2,47.371c8.022-1.081,15.093.731,20.213,6.434,1.258,1.408,26.548,29.952,27.539,31.131.432.5,11.379,13.034,11.728,13.473L565.66,211.473l72.356,82.662c6.6,7.706,12.809,21.268,13.319,33.072a140.3,140.3,0,0,1-1.321,26.783c-1.856,12.226-5.721,24.617-12.939,34.334-13.449,18.116-28.175,30.72-41.482,32.513-7.621,1.027-14.779-1.494-20.963-8.557l-6.452-7.339-.432-.5-98.1-112.164Z" transform="translate(761.782 565.248)" stroke="#0063b0" stroke-width="0.25" fill="url(#linear-gradient-14)"/>
        <path id="Path_37" data-name="Path 37" d="M429.648,264.278l80.72,92.315.383.458,5.376,6.1c5.042,5.737,10.659,7.774,16.6,6.974,11.236-1.514,23.635-13.182,35.5-29.169,5.662-7.615,8.676-17.424,10.173-27.286a137.323,137.323,0,0,0,1.143-26.127c-.447-10.112-6.334-22.408-11.99-29.027l-63.9-72.994L416.22,85.633c-.368-.434-9.834-11.275-10.314-11.841-1.058-1.242-23.01-26.036-24.349-27.532-4-4.455-9.531-5.866-15.878-5.01-20.846,2.809-50.5,30.082-63.717,54.441l-7.238,13.747-.528.994c-.1.182-.2.342-.306.527L213.1,263.62c-5.936,11.213-11.436,27.981-13.708,42.946-1.728,11.384-1.588,21.725,1.651,27.782,2.5,4.664,3.39,13.334,7.755,15.9,9.555,5.74,18.255,10.617,26.462,9.511,6.763-.911,13.192-5.887,19.49-17.79l9.788-18.485h0l-9.788,18.485c-6.3,11.906-12.727,16.879-19.49,17.79-8.207,1.106-16.907-3.771-26.462-9.511-4.365-2.569-5.257-11.238-7.755-15.9-3.239-6.057-3.379-16.4-1.651-27.782,2.272-14.965,7.773-31.733,13.708-42.946l80.794-152.661c.1-.185.2-.345.306-.527l.528-.994,7.238-13.747c13.214-24.359,42.871-51.632,63.717-54.441,6.347-.855,11.878.556,15.878,5.01,1.339,1.5,23.291,26.289,24.349,27.532.48.565,9.947,11.407,10.314,11.841l87.438,99.885,63.9,72.994c5.656,6.619,11.542,18.914,11.99,29.027a137.323,137.323,0,0,1-1.143,26.127c-1.5,9.862-4.511,19.671-10.173,27.286-11.869,15.987-24.268,27.655-35.5,29.169-5.941.8-11.558-1.236-16.6-6.974l-5.376-6.1-.383-.458-80.72-92.315Z" transform="translate(801.777 593.249)" stroke="#0063b0" stroke-width="0.25" fill="url(#linear-gradient-15)"/>
        <path id="Path_38" data-name="Path 38" d="M390.3,236.473l63.341,72.44.318.395,4.334,4.878c3.908,4.467,8.064,6.052,12.407,5.466,9.13-1.23,19.09-12.05,29.329-25.853,4.157-5.6,6.382-12.877,7.521-20.375,1.362-8.971,1.164-18.256.856-25.358-.363-8.424-5.958-19.422-10.684-24.952l-55.439-63.356L366.406,73.1c-.375-.507-8.383-9.651-8.878-10.241-1.15-1.374-19.738-22.349-21.192-23.974-2.946-3.284-7.026-4.333-11.772-3.693-18.23,2.457-46.286,29.8-57.679,50.809L260.532,98.03l-.43.837c-.08.155-.175.29-.256.446L188.387,234.352c-5.316,10.026-10.918,26.73-13.069,40.9-1.377,9.074-1.34,17.109,1.1,21.683,2.088,3.895,2.224,12.2,5.85,14.411,8.861,5.29,15.88,11.531,22.642,10.62,4.327-.583,8.551-4.1,13.084-12.667l7.2-13.619h0l-7.2,13.619c-4.533,8.571-8.756,12.083-13.084,12.667-6.761.911-13.78-5.329-22.642-10.62-3.626-2.207-3.762-10.516-5.85-14.411-2.437-4.574-2.475-12.609-1.1-21.683,2.151-14.17,7.752-30.875,13.069-40.9L259.846,99.313c.082-.155.177-.291.256-.446l.43-.837,6.354-12.024c11.393-21.012,39.449-48.353,57.679-50.809,4.745-.64,8.825.409,11.772,3.693,1.454,1.624,20.042,22.6,21.192,23.974.5.59,8.5,9.733,8.878,10.241l75.881,86.654,55.439,63.356c4.726,5.53,10.32,16.528,10.684,24.952.31,7.1.506,16.387-.856,25.358-1.138,7.5-3.364,14.776-7.521,20.375-10.239,13.8-20.2,24.623-29.329,25.853-4.343.585-8.5-1-12.407-5.466l-4.334-4.878-.318-.395L390.3,236.473Z" transform="translate(841.121 621.054)" stroke="#0063b0" stroke-width="0.25" fill="url(#linear-gradient-16)"/>
        <path id="Path_39" data-name="Path 39" d="M351.485,208.9l45.978,52.588.236.307,3.274,3.663c2.825,3.221,5.64,4.371,8.507,3.984,6.994-.943,14.306-11.033,22.883-22.59,2.78-3.753,4.3-8.641,5.085-13.832,1.285-8.463.631-17.732.349-24.2-.3-6.732-5.577-16.463-9.359-20.882l-47-53.689L317.123,60.78c-.415-.5-6.918-8-7.467-8.608-1.232-1.459-16.47-18.661-18.017-20.4-2-2.231-4.773-2.953-8.044-2.513-15.371,2.071-41.779,29.815-51.26,47.29L226.88,86.88l-.348.679c-.072.106-.128.212-.2.318L164.186,205.321c-4.614,8.719-10.523,25.692-12.521,38.855-1.015,6.684-1.021,12.385.662,15.529,1.657,3.126,1.039,11.175,3.945,12.918,7.913,4.754,12.554,13.138,17.644,12.452,2.384-.321,4.865-2.632,7.828-8.234l4.627-8.733h0l-4.627,8.733c-2.963,5.6-5.446,7.913-7.828,8.234-5.09.686-9.731-7.7-17.644-12.452-2.906-1.743-2.287-9.792-3.945-12.918-1.682-3.144-1.676-8.845-.662-15.529,2-13.163,7.907-30.136,12.521-38.855L226.332,87.877c.072-.106.127-.212.2-.318l.348-.679,5.455-10.326c9.481-17.475,35.889-45.218,51.26-47.29,3.271-.441,6.044.282,8.044,2.513,1.547,1.734,16.785,18.936,18.017,20.4.549.607,7.051,8.107,7.467,8.608l64.316,73.474,47,53.689c3.781,4.419,9.06,14.15,9.359,20.882.282,6.463.935,15.733-.349,24.2-.788,5.191-2.305,10.079-5.085,13.832-8.577,11.557-15.889,21.647-22.883,22.59-2.867.386-5.681-.763-8.507-3.984L397.7,261.8l-.236-.307L351.485,208.9Z" transform="translate(879.94 648.626)" stroke="#0063b0" stroke-width="0.25" fill="url(#linear-gradient-17)"/>
        <path id="Path_40" data-name="Path 40" d="M313.137,181.673l28.6,32.712.189.241,2.192,2.472c1.806,2.06,3.449,2.817,5.042,2.6,4.831-.651,9.168-10.247,15.981-19.421a18.142,18.142,0,0,0,3-8.127c1.142-7.523-.263-16.691-.5-22.219-.211-5.071-5.17-13.532-8.012-16.815l-38.557-44.046L268.327,48.8c-.445-.548-5.489-6.35-6.068-7-1.3-1.525-13.2-14.95-14.829-16.8a5.163,5.163,0,0,0-4.828-1.511c-12.214,1.646-36.933,30.289-44.345,43.927L193.7,76.05l-.268.521c-.053.1-.1.185-.152.263l-52.809,99.8c-3.823,7.206-10.359,24.833-12.136,36.538-.654,4.308-.665,7.814.343,9.7,1.251,2.332-.116,10.092,2.066,11.375,6.628,3.98,7.947,15.61,11.26,15.163,1.043-.141,2.285-1.479,3.953-4.637l2.063-3.894h0l-2.063,3.894c-1.668,3.158-2.909,4.5-3.953,4.637-3.313.446-4.632-11.183-11.26-15.163-2.182-1.283-.815-9.043-2.066-11.375-1.008-1.891-1-5.4-.343-9.7,1.777-11.705,8.312-29.332,12.136-36.538l52.809-99.8c.049-.079.1-.16.152-.263l.268-.521,4.555-8.628c7.412-13.638,32.131-42.281,44.345-43.927a5.163,5.163,0,0,1,4.828,1.511c1.625,1.846,13.532,15.271,14.829,16.8.579.651,5.623,6.453,6.068,7l52.737,60.27,38.557,44.046c2.842,3.283,7.8,11.744,8.012,16.815.241,5.528,1.645,14.7.5,22.219a18.142,18.142,0,0,1-3,8.127c-6.812,9.174-11.152,18.77-15.981,19.421-1.593.215-3.238-.542-5.042-2.6l-2.192-2.472-.189-.241-28.6-32.712Z" transform="translate(918.288 675.854)" stroke="#0063b0" stroke-width="0.25" fill="url(#linear-gradient-18)"/>
        <path id="Path_41" data-name="Path 41" d="M278.408,154.916l11.236,12.861.128.151,1.111,1.259c.92,1.042,1.656,1.448,2.289,1.362,2.72-.367,3.482-9.808,8.389-16.4a8.236,8.236,0,0,0,1.372-3.7c.895-5.893-1.636-14.76-1.8-18.945-.165-3.377-4.832-10.543-6.706-12.743l-30.1-34.4-41.2-47.041c-.473-.614-4.022-4.7-4.651-5.393-1.356-1.64-9.908-11.292-11.65-13.243a2.434,2.434,0,0,0-2.279-.717c-8.649,1.166-31.578,31.279-36.756,40.847l-3.65,6.9-.184.34-.1.184L120.366,148.39c-2.833,5.346-10.411,24.018-11.83,33.369-.329,2.17-.327,3.838.143,4.722.818,1.566-1.3,9.039.156,9.911,4.9,2.9,1.785,19.01,3.456,18.785.315-.042.8-.66,1.531-2.048l-.528.994h0l.528-.994c-.736,1.388-1.218,2.006-1.531,2.048-1.671.225,1.442-15.889-3.456-18.785-1.454-.872.662-8.345-.156-9.911-.469-.884-.472-2.552-.143-4.722,1.42-9.352,9-28.023,11.83-33.369l43.489-82.151.1-.184.184-.34,3.65-6.9c5.179-9.567,28.106-39.681,36.756-40.847a2.434,2.434,0,0,1,2.279.717c1.742,1.951,10.294,11.6,11.65,13.243.629.692,4.179,4.779,4.651,5.393l41.2,47.041,30.1,34.4c1.874,2.2,6.541,9.366,6.706,12.743.168,4.185,2.7,13.052,1.8,18.945a8.236,8.236,0,0,1-1.372,3.7c-4.907,6.592-5.67,16.033-8.389,16.4-.633.085-1.369-.32-2.289-1.362l-1.111-1.259-.128-.151-11.236-12.861Z" transform="translate(953.017 702.61)" stroke="#0063b0" stroke-width="0.25" fill="url(#linear-gradient-19)"/>
        <path id="Path_42" data-name="Path 42" d="M257.653,128.724l-6.143-7.015.061.088.067.065c.261.3.434.427.541.413.067-.009.1-.074.122-.19.173-1.141-1.828-7.156-1.22-11.162a5.2,5.2,0,0,1,.874-2.337,2.055,2.055,0,0,0,.35-.93c.517-3.407-3.641-11.658-3.744-14.007-.067-1.667-4.433-7.584-5.378-8.7L221.541,60.239,191.909,26.379c-.492-.614-2.574-3.053-3.217-3.791-1.455-1.722-6.657-7.6-8.5-9.635a.636.636,0,0,0-.6-.194c-4.585.618-25.572,32.942-28.283,37.957l-2.774,5.228-.082.158-.053.1L114.243,120.76c-1.574,2.975-10.8,23.075-11.651,28.666a2.322,2.322,0,0,0,.033,1.258,1.2,1.2,0,0,1,.01.638c-.233,1.534-1.549,5.169-1.805,6.857-.071.466-.061.785.073.87.579.348.627,1.642.351,3.458-.95,6.261-5.745,18.72-5.934,19.966-.01.069-.008.1.011.1.04-.005.143-.166.323-.505l-3.117,5.861h0l3.117-5.861c-.18.339-.283.5-.323.505-.019,0-.021-.033-.011-.1.189-1.247,4.984-13.705,5.934-19.966.276-1.817.227-3.111-.351-3.458-.134-.088-.144-.4-.073-.87.256-1.689,1.572-5.323,1.805-6.857a1.2,1.2,0,0,0-.01-.638,2.328,2.328,0,0,1-.033-1.258c.849-5.591,10.076-25.691,11.651-28.666L148.4,56.206l.053-.1.082-.158,2.774-5.228c2.712-5.018,23.7-37.339,28.283-37.957a.636.636,0,0,1,.6.194c1.844,2.033,7.045,7.913,8.5,9.635.643.738,2.726,3.177,3.217,3.791l29.632,33.859,21.643,24.715c.945,1.111,5.311,7.028,5.378,8.7.1,2.35,4.261,10.6,3.744,14.007a2.055,2.055,0,0,1-.35.93,5.2,5.2,0,0,0-.874,2.337c-.608,4.006,1.393,10.021,1.22,11.162-.018.115-.057.181-.122.19-.107.014-.28-.114-.541-.413l-.067-.065-.061-.088,6.143,7.015Z" transform="translate(973.772 728.803)" stroke="#0063b0" stroke-width="0.25" fill="url(#linear-gradient-20)"/>
        <path id="Path_43" data-name="Path 43" d="M245.6,110.964,187.469,44.5l-18.075-20.63c-1.7-2.125-4.336-5.121-7.107-8.243l-81.8,154.546h0l81.8-154.546c2.771,3.122,5.41,6.118,7.107,8.243L187.469,44.5,245.6,110.964Z" transform="translate(985.821 746.563)" stroke="#0063b0" stroke-width="0.25" fill="url(#linear-gradient-21)"/>
      </g>
    </g>
  </g>
</svg>
