<svg width="55" height="55" viewBox="0 0 55 55" fill="none" xmlns="http://www.w3.org/2000/svg">
<path d="M40 0H15C6.71573 0 0 6.71573 0 15V40C0 48.2843 6.71573 55 15 55H40C48.2843 55 55 48.2843 55 40V15C55 6.71573 48.2843 0 40 0Z" fill="#F4F7FB"/>
<path d="M30.9782 14.9844C31.175 15.1371 31.175 15.1371 31.2531 15.2245C31.2531 15.2472 31.2531 15.2698 31.2531 15.2932C31.2758 15.2932 31.2985 15.2932 31.3218 15.2932C31.3763 15.3472 31.3763 15.3472 31.4378 15.4197C31.4594 15.445 31.4809 15.4704 31.5031 15.4965C31.5227 15.52 31.5422 15.5434 31.5624 15.5676C31.5851 15.5945 31.6078 15.6214 31.6312 15.6491C31.9028 16.005 32.1175 16.3604 32.2713 16.7813C32.2856 16.8191 32.2856 16.8191 32.3001 16.8577C32.5655 17.6161 32.5445 18.3877 32.5421 19.1791C32.5417 19.357 32.5421 19.535 32.5424 19.7129C32.5429 20.0205 32.5429 20.3281 32.5425 20.6357C32.542 21.0809 32.5423 21.5261 32.5429 21.9713C32.5438 22.6944 32.5442 23.4176 32.5441 24.1407C32.5441 24.2055 32.5441 24.2055 32.5441 24.2716C32.5441 24.4466 32.5441 24.6216 32.5441 24.7966C32.5441 25.2789 32.5441 25.7612 32.5442 26.2435C32.5442 26.2867 32.5442 26.3299 32.5442 26.3745C32.5444 27.0954 32.5449 27.8164 32.5458 28.5373C32.5462 28.9814 32.5463 29.4255 32.5459 29.8695C32.5457 30.1736 32.5458 30.4777 32.5462 30.7818C32.5464 30.9571 32.5464 31.1324 32.546 31.3077C32.5456 31.4684 32.5457 31.629 32.5462 31.7897C32.5463 31.8476 32.5462 31.9055 32.5459 31.9634C32.5377 32.5958 32.5377 32.5958 32.8088 33.1482C32.9724 33.2975 33.1631 33.3664 33.384 33.3741C33.5968 33.3529 33.7878 33.2958 33.9339 33.134C34.1293 32.82 34.1795 32.5513 34.1793 32.1891C34.1794 32.1567 34.1796 32.1243 34.1797 32.0909C34.1799 32.0207 34.1801 31.9504 34.1802 31.8802C34.1805 31.7681 34.181 31.656 34.1817 31.5439C34.1834 31.2251 34.1851 30.9064 34.1856 30.5877C34.1899 28.4062 34.1899 28.4062 34.5525 27.6102C34.5758 27.556 34.5991 27.5019 34.6224 27.4477C34.7781 27.0953 34.958 26.8073 35.2055 26.5123C35.2458 26.4581 35.2859 26.4038 35.3258 26.3493C35.5788 26.0283 35.9047 25.8058 36.2464 25.5893C36.2966 25.5572 36.3461 25.5238 36.3954 25.4902C37.0392 25.0676 37.877 25.0415 38.6091 25.1882C39.2015 25.3187 39.7024 25.637 40.1546 26.032C40.1886 26.0546 40.2226 26.0772 40.2577 26.1006C40.2577 26.1232 40.2577 26.1459 40.2577 26.1692C40.2865 26.1797 40.2865 26.1797 40.3159 26.1905C40.4244 26.2553 40.4888 26.3461 40.5627 26.4458C40.5767 26.4642 40.5908 26.4826 40.6053 26.5015C40.8009 26.7604 40.9702 27.0215 41.1019 27.3186C41.115 27.3481 41.1282 27.3776 41.1418 27.408C41.3331 27.8474 41.466 28.2906 41.4654 28.7733C41.4656 28.8127 41.4656 28.8127 41.4657 28.8529C41.466 28.9403 41.4661 29.0277 41.4661 29.1152C41.4663 29.1781 41.4665 29.241 41.4666 29.3039C41.4671 29.4744 41.4673 29.6449 41.4675 29.8153C41.4676 29.9219 41.4677 30.0284 41.4679 30.1349C41.4683 30.4684 41.4687 30.8018 41.4688 31.1353C41.4689 31.52 41.4696 31.9048 41.4705 32.2895C41.4713 32.5872 41.4716 32.8848 41.4717 33.1824C41.4717 33.3601 41.4719 33.5378 41.4725 33.7154C41.4731 33.8825 41.4732 34.0495 41.4729 34.2165C41.4728 34.2778 41.473 34.3391 41.4733 34.4003C41.4738 34.484 41.4736 34.5677 41.4732 34.6513C41.4735 34.6755 41.4738 34.6997 41.4741 34.7247C41.4721 34.9153 41.4216 35.051 41.2957 35.1941C41.1043 35.3608 40.9475 35.4451 40.6873 35.4284C40.4366 35.391 40.2871 35.2714 40.1258 35.0821C40.0381 34.9481 40.047 34.8066 40.0465 34.6503C40.0464 34.6269 40.0463 34.6034 40.0461 34.5793C40.0458 34.5007 40.0456 34.4221 40.0455 34.3435C40.0453 34.2872 40.0451 34.2308 40.0448 34.1744C40.0443 34.053 40.0439 33.9315 40.0436 33.8101C40.043 33.6177 40.0422 33.4253 40.0413 33.2329C40.0389 32.6858 40.0368 32.1386 40.0351 31.5915C40.0341 31.2893 40.0329 30.9872 40.0314 30.685C40.0305 30.4942 40.0299 30.3033 40.0295 30.1125C40.0292 29.9931 40.0286 29.8737 40.0279 29.7542C40.0276 29.6993 40.0275 29.6444 40.0275 29.5895C40.0271 28.7409 39.8523 27.9386 39.2416 27.3137C38.8749 26.9668 38.351 26.795 37.854 26.776C37.3073 26.7915 36.8486 27.0476 36.4608 27.413C36.3733 27.508 36.3051 27.6039 36.2366 27.7131C36.2196 27.7393 36.2027 27.7656 36.1853 27.7926C35.8678 28.3073 35.7163 28.7689 35.7156 29.37C35.7154 29.4043 35.7153 29.4386 35.7151 29.4739C35.7147 29.548 35.7144 29.6222 35.7142 29.6963C35.7138 29.814 35.7131 29.9318 35.7124 30.0496C35.7102 30.3843 35.7084 30.7191 35.7072 31.0539C35.7065 31.2591 35.7053 31.4643 35.7038 31.6695C35.7033 31.7471 35.703 31.8248 35.7029 31.9025C35.7015 32.7998 35.5696 33.6681 34.9459 34.3603C34.8962 34.4034 34.8962 34.4034 34.8274 34.4034C34.8274 34.4261 34.8274 34.4487 34.8274 34.472C34.7578 34.5309 34.6889 34.5844 34.6148 34.6371C34.5824 34.6602 34.5824 34.6602 34.5494 34.6838C34.0664 35.0162 33.5054 35.0895 32.9308 35.0107C32.2872 34.8847 31.7849 34.4196 31.4271 33.8939C31.0731 33.3044 31.0417 32.5992 31.0421 31.93C31.0421 31.8701 31.042 31.8101 31.0419 31.7502C31.0416 31.5859 31.0415 31.4215 31.0415 31.2572C31.0414 31.0799 31.0412 30.9025 31.0409 30.7251C31.0405 30.4179 31.0403 30.1106 31.04 29.8033C31.0397 29.3175 31.039 28.8317 31.0382 28.3458C31.038 28.1795 31.0377 28.0132 31.0375 27.8469C31.0374 27.8053 31.0373 27.7638 31.0373 27.7209C31.0365 27.2481 31.0359 26.7753 31.0353 26.3024C31.0352 26.2592 31.0352 26.216 31.0351 26.1715C31.0342 25.4711 31.0336 24.7708 31.033 24.0705C31.0324 23.3511 31.0314 22.6317 31.0301 21.9123C31.0293 21.4688 31.0288 21.0253 31.0287 20.5818C31.0287 20.2778 31.0282 19.9738 31.0275 19.6698C31.0271 19.4945 31.0268 19.3192 31.027 19.1439C31.0272 18.9832 31.0269 18.8225 31.0262 18.6619C31.0261 18.6039 31.0261 18.546 31.0263 18.4881C31.0287 17.7691 30.8642 17.0945 30.3595 16.5626C29.9371 16.1401 29.4582 15.9233 28.8583 15.9074C28.2257 15.9362 27.7167 16.2127 27.2921 16.6762C26.9623 17.0919 26.7471 17.6249 26.7462 18.1594C26.7461 18.1965 26.746 18.2337 26.7458 18.272C26.7458 18.3124 26.7458 18.3529 26.7458 18.3946C26.7457 18.4379 26.7456 18.4811 26.7455 18.5257C26.7451 18.6456 26.745 18.7654 26.7449 18.8853C26.7448 19.0147 26.7445 19.1441 26.7442 19.2735C26.7436 19.4977 26.7432 19.7219 26.7429 19.9461C26.7424 20.2708 26.7417 20.5954 26.7409 20.9201C26.7396 21.4476 26.7384 21.9751 26.7373 22.5026C26.7373 22.5341 26.7372 22.5657 26.7371 22.5982C26.7362 23.0457 26.7354 23.4932 26.7346 23.9407C26.7345 23.9879 26.7345 23.9879 26.7344 24.0361C26.7343 24.0833 26.7343 24.0833 26.7343 24.1314C26.7333 24.6566 26.7322 25.1817 26.7308 25.7069C26.7299 26.0306 26.7293 26.3542 26.7289 26.6778C26.7287 26.8999 26.7282 27.1219 26.7275 27.344C26.7271 27.4719 26.7268 27.5998 26.7268 27.7277C26.7269 27.8668 26.7263 28.0059 26.7258 28.145C26.7259 28.1848 26.726 28.2247 26.7261 28.2657C26.7237 28.6467 26.6885 29.0271 26.5532 29.3857C26.5441 29.4103 26.535 29.435 26.5256 29.4604C26.3523 29.9138 26.0405 30.343 25.6167 30.5951C25.594 30.5951 25.5713 30.5951 25.5479 30.5951C25.5479 30.6177 25.5479 30.6404 25.5479 30.6637C24.9349 30.9685 24.2873 31.0432 23.6278 30.8406C23.4931 30.791 23.3699 30.7348 23.2452 30.6637C23.2452 30.6411 23.2452 30.6184 23.2452 30.5951C23.2203 30.5866 23.1954 30.5782 23.1698 30.5695C22.7225 30.3699 22.4259 29.8627 22.2485 29.4286C22.1336 29.0944 22.0718 28.776 22.0713 28.4224C22.0711 28.3948 22.0709 28.3673 22.0707 28.3389C22.0704 28.2794 22.0701 28.2199 22.0698 28.1604C22.0694 28.0657 22.0688 27.971 22.068 27.8763C22.0659 27.607 22.064 27.3378 22.0629 27.0686C22.0622 26.9034 22.0609 26.7383 22.0594 26.5732C22.0589 26.5109 22.0586 26.4485 22.0585 26.3862C22.0579 26.0781 22.0489 25.7772 21.9966 25.4729C21.9927 25.4499 21.9887 25.4268 21.9847 25.403C21.9081 25.0046 21.6671 24.6354 21.4237 24.3165C21.401 24.3052 21.3783 24.2938 21.3549 24.2822C21.3549 24.2595 21.3549 24.2369 21.3549 24.2136C21.3354 24.2046 21.3159 24.1956 21.2957 24.1864C21.2114 24.1417 21.1409 24.089 21.065 24.0313C20.5873 23.6925 20.0209 23.6364 19.4531 23.7147C18.8753 23.8585 18.4503 24.1995 18.1331 24.6896C17.8191 25.2195 17.7446 25.7792 17.7354 26.3838C17.7347 26.4229 17.7339 26.4621 17.7332 26.5024C17.731 26.6265 17.7289 26.7506 17.7269 26.8747C17.7254 26.9592 17.7239 27.0438 17.7224 27.1283C17.7187 27.3347 17.7152 27.541 17.7119 27.7474C17.6838 27.7401 17.6558 27.7329 17.6269 27.7254C17.5899 27.716 17.553 27.7065 17.5149 27.6968C17.4784 27.6874 17.4418 27.678 17.4042 27.6683C17.0707 27.5924 16.723 27.623 16.4059 27.7474C16.3718 27.7587 16.3378 27.7701 16.3028 27.7817C16.2422 27.7212 16.2631 27.6349 16.2623 27.5528C16.2619 27.5111 16.2614 27.4694 16.261 27.4263C16.2607 27.3802 16.2604 27.334 16.2602 27.2879C16.2601 27.2645 16.2599 27.2412 16.2598 27.2171C16.2591 27.0929 16.2586 26.9686 16.2582 26.8444C16.2579 26.7428 16.2572 26.6412 16.2561 26.5397C16.2483 25.8067 16.2803 25.1278 16.5519 24.4366C16.5653 24.4018 16.5787 24.367 16.5925 24.3311C16.6963 24.0706 16.8169 23.852 16.9901 23.6303C17.0389 23.5625 17.0876 23.4946 17.1362 23.4266C17.3645 23.1144 17.6094 22.8863 17.9224 22.6611C17.9526 22.6392 17.9526 22.6392 17.9834 22.617C18.2964 22.3952 18.2964 22.3952 18.4336 22.3952C18.4336 22.3725 18.4336 22.3499 18.4336 22.3266C19.2358 21.9434 20.1685 21.8878 21.0101 22.1783C21.1381 22.224 21.2642 22.2735 21.3893 22.3266C21.3893 22.3492 21.3893 22.3718 21.3893 22.3952C21.4194 22.4041 21.4494 22.413 21.4803 22.4221C22.2949 22.7169 22.8673 23.584 23.2228 24.3272C23.2932 24.4801 23.3433 24.6333 23.3827 24.7968C23.3914 24.8279 23.4001 24.859 23.409 24.891C23.5362 25.3597 23.5645 25.8204 23.565 26.3029C23.5651 26.3966 23.5657 26.4902 23.5664 26.5839C23.5683 26.8497 23.5694 27.1156 23.5702 27.3814C23.5708 27.5451 23.5718 27.7087 23.5731 27.8724C23.5735 27.9343 23.5737 27.9962 23.5737 28.0581C23.5737 28.1446 23.5744 28.2311 23.5751 28.3176C23.575 28.3428 23.5748 28.3679 23.5747 28.3938C23.5783 28.6559 23.6656 28.8798 23.8295 29.0855C24.0229 29.2593 24.2794 29.2992 24.5339 29.2873C24.7341 29.2534 24.8913 29.1619 25.0324 29.0169C25.1663 28.8194 25.2085 28.6212 25.2086 28.3846C25.2087 28.3474 25.2088 28.3102 25.2089 28.2719C25.2088 28.2109 25.2088 28.2109 25.2087 28.1487C25.2088 28.1053 25.2089 28.062 25.209 28.0173C25.2091 27.9221 25.2092 27.827 25.2091 27.7318C25.2091 27.577 25.2093 27.4221 25.2095 27.2672C25.2097 27.0422 25.2099 26.8173 25.21 26.5923C25.2102 26.2361 25.2108 25.8799 25.2114 25.5237C25.2117 25.4017 25.2119 25.2798 25.2121 25.1578C25.2122 25.1273 25.2122 25.0968 25.2123 25.0654C25.2129 24.7183 25.2134 24.3711 25.214 24.024C25.214 23.9923 25.214 23.9606 25.2141 23.9279C25.2149 23.415 25.2152 22.9021 25.2155 22.3892C25.2158 21.8618 25.2166 21.3344 25.2178 20.807C25.2186 20.4823 25.2189 20.1575 25.2187 19.8327C25.2186 19.6096 25.219 19.3864 25.2198 19.1633C25.2202 19.0349 25.2204 18.9066 25.22 18.7782C25.2161 17.3484 25.5356 16.2252 26.5488 15.1843C26.6963 15.0366 26.8435 14.9156 27.0258 14.8128C27.0462 14.8008 27.0665 14.7888 27.0876 14.7765C28.3422 14.0424 29.8087 14.1465 30.9782 14.9844Z" fill="#4481AC"/>
<path d="M36.6695 37.1769C36.735 37.1764 36.735 37.1764 36.8017 37.1759C36.8488 37.1758 36.896 37.1756 36.9431 37.1755C36.9793 37.1754 36.9793 37.1754 37.0162 37.1752C37.144 37.1747 37.2719 37.1744 37.3998 37.1742C37.5302 37.174 37.6607 37.1732 37.7911 37.1722C37.8928 37.1716 37.9945 37.1714 38.0962 37.1714C38.1442 37.1713 38.1922 37.171 38.2402 37.1705C38.9243 37.1645 39.6922 37.3054 40.23 37.761C40.2698 37.8012 40.3088 37.8422 40.3468 37.8842C40.3978 37.9433 40.3978 37.9433 40.481 38.0037C40.6057 38.1064 40.7054 38.2244 40.8075 38.349C40.8292 38.375 40.8509 38.401 40.8732 38.4278C41.379 39.0743 41.5714 39.8633 41.5675 40.6728C41.5675 40.701 41.5675 40.7291 41.5676 40.7582C41.5675 40.85 41.5673 40.9419 41.567 41.0338C41.5669 41.098 41.5669 41.1622 41.5668 41.2263C41.5667 41.3944 41.5664 41.5624 41.566 41.7304C41.5656 41.9022 41.5655 42.074 41.5653 42.2458C41.5649 42.5823 41.5644 42.9187 41.5636 43.2552C40.5067 43.2576 39.4498 43.2594 38.3929 43.2605C38.268 43.2606 38.143 43.2607 38.0181 43.2609C37.9808 43.2609 37.9808 43.2609 37.9428 43.2609C37.5407 43.2614 37.1386 43.2622 36.7365 43.2631C36.3236 43.2641 35.9106 43.2647 35.4977 43.2649C35.2659 43.265 35.0341 43.2653 34.8023 43.2661C34.584 43.2668 34.3657 43.267 34.1473 43.2668C34.0674 43.2669 33.9874 43.2671 33.9074 43.2675C33.2472 43.2706 32.7693 43.2246 32.2479 42.7871C32.1805 42.7308 32.1805 42.7308 32.0779 42.7406C32.0038 42.7958 32.0038 42.7958 31.9254 42.8671C31.5632 43.1653 31.1408 43.2659 30.681 43.2642C30.645 43.2643 30.6089 43.2644 30.5718 43.2645C30.4515 43.2649 30.3311 43.2648 30.2108 43.2646C30.1244 43.2648 30.0379 43.265 29.9515 43.2652C29.7413 43.2656 29.5311 43.2657 29.3209 43.2656C29.1499 43.2655 28.979 43.2656 28.808 43.2657C28.7715 43.2658 28.7715 43.2658 28.7342 43.2658C28.6847 43.2658 28.6352 43.2659 28.5857 43.2659C28.1217 43.2663 27.6578 43.2662 27.1938 43.266C26.77 43.2658 26.3461 43.2662 25.9222 43.2669C25.4864 43.2675 25.0506 43.2678 24.6148 43.2677C24.3704 43.2676 24.1259 43.2677 23.8815 43.2682C23.6515 43.2686 23.4216 43.2686 23.1917 43.2681C23.1074 43.268 23.0232 43.2681 22.9389 43.2684C22.8236 43.2688 22.7083 43.2685 22.5931 43.268C22.5434 43.2684 22.5434 43.2684 22.4928 43.2688C22.2607 43.267 22.0569 43.2225 21.8361 43.1523C21.8347 43.177 21.8333 43.2018 21.8319 43.2273C21.8166 43.4786 21.7604 43.7016 21.6793 43.9392C21.6669 43.9755 21.6546 44.0117 21.6419 44.0491C21.5454 44.3217 21.4368 44.5402 21.2518 44.7648C21.2224 44.8027 21.193 44.8406 21.1637 44.8786C20.7421 45.4117 20.1427 45.7701 19.4646 45.8627C18.7012 45.9365 18.0133 45.7097 17.4133 45.2377C17.2567 45.1082 17.1382 44.9662 17.0245 44.7991C17.0037 44.7712 16.9829 44.7432 16.9615 44.7144C16.8285 44.5333 16.7264 44.3569 16.6464 44.1472C16.6246 44.0908 16.6246 44.0908 16.6024 44.0332C16.4235 43.553 16.3669 43.0942 16.3645 42.5839C16.3643 42.551 16.3641 42.5181 16.3639 42.4841C16.3636 42.4151 16.3633 42.3462 16.3632 42.2772C16.3629 42.1724 16.3618 42.0678 16.3607 41.963C16.3605 41.8955 16.3603 41.828 16.3602 41.7605C16.3597 41.7297 16.3593 41.6988 16.3589 41.6671C16.3602 41.3021 16.4582 41.0138 16.7151 40.7506C16.8974 40.611 17.1135 40.6234 17.3338 40.6477C17.5397 40.6936 17.6307 40.8026 17.744 40.9758C17.8376 41.1326 17.8876 41.2498 17.8896 41.4327C17.8901 41.4667 17.8906 41.5007 17.891 41.5358C17.8914 41.5726 17.8918 41.6093 17.8921 41.6472C17.8933 41.7252 17.8944 41.8032 17.8955 41.8812C17.8972 42.0041 17.8987 42.127 17.9001 42.2498C17.9014 42.3685 17.9032 42.4871 17.905 42.6057C17.9053 42.6421 17.9056 42.6785 17.9059 42.7159C17.9106 43.0003 17.9384 43.2576 18.077 43.5104C18.1586 43.6609 18.1586 43.6609 18.1586 43.7355C18.1813 43.7355 18.204 43.7355 18.2274 43.7355C18.2734 43.7926 18.3192 43.8498 18.3648 43.9071C18.5845 44.1199 18.8401 44.1903 19.1403 44.1987C19.5402 44.1863 19.7687 44.0255 20.0383 43.7433C20.3473 43.3768 20.3433 42.9217 20.3405 42.4688C20.3399 42.367 20.3402 42.2653 20.3407 42.1636C20.3415 41.9478 20.3414 41.732 20.341 41.5162C20.3406 41.2654 20.3407 41.0148 20.3419 40.764C20.3421 40.6643 20.3415 40.5647 20.3409 40.465C20.3411 39.8099 20.3411 39.8099 20.5632 39.5348C20.7633 39.3766 20.9089 39.2917 21.1692 39.2991C21.3701 39.3248 21.5371 39.4081 21.6771 39.5541C21.8731 39.8171 21.8821 40.1192 21.8833 40.4354C21.892 40.7834 21.9049 41.1034 22.1455 41.3782C22.307 41.527 22.424 41.5786 22.6452 41.5774C22.7005 41.5772 22.7005 41.5772 22.757 41.5771C22.8147 41.5766 22.8147 41.5766 22.8736 41.5762C22.9124 41.576 22.9513 41.5759 22.9914 41.5757C23.0874 41.5753 23.1835 41.5748 23.2795 41.5741C23.2792 41.5546 23.2789 41.5352 23.2786 41.5151C23.2756 41.3114 23.2735 41.1077 23.272 40.9039C23.2713 40.8281 23.2704 40.7522 23.2692 40.6763C23.2675 40.5668 23.2667 40.4573 23.2661 40.3478C23.2654 40.3143 23.2647 40.2808 23.264 40.2462C23.2639 39.9946 23.3053 39.7506 23.4725 39.5527C23.6276 39.4028 23.8231 39.316 24.0393 39.3064C24.3054 39.327 24.4765 39.4595 24.6453 39.6502C24.7642 39.8453 24.7703 40.0636 24.7789 40.2853C24.7802 40.3137 24.7815 40.3421 24.7829 40.3713C24.7861 40.4405 24.789 40.5098 24.7918 40.5791C24.9431 40.4483 25.0943 40.3175 25.2455 40.1866C25.293 40.1454 25.3406 40.1043 25.3882 40.0632C25.5036 39.9633 25.6167 39.8613 25.7287 39.7577C25.9041 39.5957 26.0822 39.4398 26.2687 39.2905C26.3464 39.2279 26.423 39.1647 26.4993 39.1004C27.1173 38.5833 27.7929 38.192 28.5723 37.9716C28.63 37.9551 28.63 37.9551 28.6888 37.9383C29.4717 37.7491 30.3208 37.8256 31.0125 38.2461C31.1341 38.3308 31.247 38.4204 31.3562 38.5205C31.3748 38.5373 31.3934 38.554 31.4126 38.5713C31.5752 38.724 31.6846 38.8867 31.7901 39.0823C31.8063 39.1121 31.8226 39.1419 31.8393 39.1725C32.2605 39.9712 32.181 40.6605 32.181 41.6084C34.7896 41.6084 37.3982 41.6084 40.0858 41.6084C40.0929 40.3776 40.0929 40.3776 39.5703 39.3439C39.1502 38.9487 38.6542 38.8469 38.0891 38.85C38.0479 38.8499 38.0068 38.8498 37.9645 38.8497C37.8783 38.8496 37.7921 38.8498 37.7059 38.8502C37.5749 38.8508 37.4441 38.8502 37.3131 38.8495C37.2288 38.8496 37.1445 38.8497 37.0601 38.85C37.0216 38.8497 36.983 38.8495 36.9433 38.8493C36.5056 38.8532 36.0819 38.9471 35.7454 39.2412C35.4477 39.5523 35.3592 39.8853 35.3111 40.3018C35.2765 40.5894 35.1887 40.7553 34.9641 40.94C34.803 41.0604 34.648 41.0844 34.4493 41.0594C34.3536 41.0312 34.2664 40.9959 34.1744 40.9565C34.1744 40.9338 34.1744 40.9112 34.1744 40.8879C34.1446 40.8783 34.1446 40.8783 34.1142 40.8686C33.9695 40.7763 33.915 40.6203 33.8565 40.4654C33.7556 39.9703 33.8623 39.4185 34.0713 38.9665C34.0865 38.9321 34.1018 38.8976 34.1175 38.862C34.2995 38.4723 34.5645 38.1115 34.8961 37.8343C34.9188 37.8343 34.9415 37.8343 34.9649 37.8343C34.9762 37.8004 34.9875 37.7664 34.9992 37.7314C35.0731 37.6821 35.1449 37.6386 35.2226 37.5963C35.2555 37.5781 35.2555 37.5781 35.2891 37.5595C35.7252 37.3208 36.1667 37.18 36.6695 37.1769ZM27.9722 39.9994C27.8746 40.0722 27.7737 40.1386 27.6723 40.206C27.3709 40.4108 27.0902 40.6515 26.8328 40.9092C26.7498 40.9918 26.6636 41.0653 26.5725 41.1388C26.5399 41.1652 26.5073 41.1916 26.4737 41.2188C26.3467 41.3204 26.219 41.4213 26.0909 41.5215C26.0705 41.5389 26.0501 41.5562 26.029 41.5741C26.029 41.5854 26.029 41.5967 26.029 41.6084C27.5828 41.6084 29.1366 41.6084 30.7375 41.6084C30.7755 40.8062 30.7755 40.8062 30.5335 40.0666C30.5168 40.0373 30.5002 40.0079 30.4831 39.9777C30.3705 39.8038 30.2776 39.701 30.0888 39.6098C30.0542 39.5927 30.0195 39.5755 29.9838 39.5578C29.3457 39.3018 28.4929 39.6109 27.9722 39.9994Z" fill="#686868"/>
<path d="M21.458 13.0974C21.4935 13.1185 21.5289 13.1396 21.5655 13.1613C22.1646 13.5267 22.6045 13.975 22.9702 14.5727C22.9927 14.6087 23.0152 14.6447 23.0384 14.6818C23.2455 15.0219 23.3509 15.356 23.4406 15.7414C23.448 15.773 23.4554 15.8046 23.463 15.8372C23.7246 17.0092 23.4771 18.176 22.8621 19.1901C22.7251 19.4046 22.5722 19.5808 22.3859 19.7534C22.3588 19.7809 22.3316 19.8084 22.3036 19.8368C22.2142 19.9249 22.1219 20.0058 22.0251 20.0858C21.9777 20.1253 21.9777 20.1253 21.9295 20.1655C21.8421 20.2293 21.7662 20.2679 21.6642 20.3024C21.6642 20.325 21.6642 20.3476 21.6642 20.371C20.7336 20.8343 19.7818 20.9944 18.7775 20.6618C18.4132 20.5323 18.1082 20.3488 17.8149 20.0965C17.7838 20.0721 17.7527 20.0477 17.7207 20.0225C17.3133 19.7026 17.042 19.3383 16.7838 18.8957C16.7669 18.8672 16.7499 18.8388 16.7324 18.8095C16.2277 17.8893 16.1046 16.6881 16.3818 15.6824C16.4563 15.4327 16.5455 15.1902 16.6464 14.9501C16.6618 14.9132 16.6773 14.8763 16.6932 14.8383C17.0404 14.088 17.6415 13.4894 18.3648 13.0974C18.3894 13.0828 18.414 13.0681 18.4393 13.053C19.3123 12.5655 20.6018 12.5801 21.458 13.0974ZM18.3769 15.0353C17.9046 15.5642 17.6795 16.2501 17.7161 16.9551C17.7923 17.6401 18.0743 18.3 18.6071 18.7537C19.1205 19.1251 19.6979 19.2642 20.3238 19.1701C20.8654 19.0456 21.3297 18.7449 21.6341 18.2796C21.7047 18.1665 21.7712 18.0515 21.836 17.935C21.852 17.9071 21.8679 17.8792 21.8844 17.8504C22.1609 17.3057 22.1571 16.5185 21.9735 15.9451C21.733 15.3283 21.3618 14.8483 20.7706 14.5384C19.9272 14.1913 19.0039 14.3695 18.3769 15.0353Z" fill="#4C9FAF"/>
<path d="M39.6391 16.2538C39.6689 16.2738 39.6987 16.2939 39.7294 16.3145C40.0908 16.5665 40.4152 16.8539 40.6701 17.2145C40.6948 17.2472 40.7195 17.2798 40.7449 17.3135C41.2575 18.0127 41.4736 18.8326 41.4715 19.6899C41.4713 19.7807 41.4722 19.8714 41.473 19.9622C41.4747 20.4103 41.4201 20.8177 41.2651 21.2415C41.2563 21.2657 41.2475 21.2899 41.2384 21.3149C40.9146 22.179 40.373 22.8448 39.6047 23.3558C39.5625 23.3855 39.5625 23.3855 39.5195 23.4157C39.0408 23.7324 38.4254 23.8501 37.8605 23.8469C37.8063 23.8466 37.8063 23.8466 37.7511 23.8463C36.792 23.8314 36.0076 23.4114 35.343 22.7383C35.3217 22.7178 35.3004 22.6973 35.2784 22.6762C35.1546 22.5566 35.055 22.4401 34.9649 22.2922C34.9503 22.2692 34.9356 22.2462 34.9205 22.2224C34.81 22.0452 34.7115 21.8628 34.617 21.6768C34.6058 21.6552 34.5947 21.6335 34.5832 21.6112C34.4194 21.2837 34.322 20.958 34.269 20.5961C34.2632 20.557 34.2575 20.5179 34.2516 20.4777C34.0871 19.2826 34.3387 18.1499 35.0466 17.1694C35.3415 16.7936 35.6731 16.5193 36.0647 16.2538C36.0907 16.234 36.1167 16.2143 36.1435 16.1939C37.1052 15.479 38.6881 15.6014 39.6391 16.2538ZM36.2872 18.0627C35.7543 18.7273 35.6302 19.4509 35.6961 20.2838C35.7785 20.8133 36.1022 21.4203 36.5301 21.7497C37.0489 22.1243 37.5617 22.2367 38.1956 22.1893C38.3533 22.1599 38.4947 22.1142 38.6424 22.0521C38.6726 22.04 38.7027 22.028 38.7338 22.0156C38.9707 21.9104 39.1472 21.753 39.3298 21.5717C39.3509 21.5518 39.3721 21.5319 39.3939 21.5113C39.8125 21.0828 40.0287 20.4352 40.0546 19.849C40.0378 19.1437 39.7953 18.484 39.3104 17.9628C38.8837 17.5575 38.3538 17.3626 37.7673 17.3723C37.2024 17.3945 36.6646 17.6378 36.2872 18.0627Z" fill="#427AAB"/>
<path d="M31.0666 5.75413C31.1903 5.85752 31.289 5.97381 31.3905 6.09829C31.4362 6.14845 31.4821 6.19848 31.528 6.2484C32.3221 7.14627 32.5849 8.3241 32.5247 9.49491C32.4403 10.4073 32.0504 11.3469 31.3764 11.9801C31.3222 12.0335 31.2779 12.0893 31.2316 12.1496C30.7923 12.6655 29.98 12.9741 29.3284 13.0631C28.3408 13.1356 27.47 12.9223 26.6909 12.3018C26.6045 12.2266 26.5226 12.1489 26.4415 12.0681C26.4137 12.0408 26.3859 12.0134 26.3573 11.9853C25.8282 11.4364 25.5205 10.7767 25.3417 10.0439C25.3251 9.97944 25.3251 9.97944 25.3081 9.91372C25.1697 9.30117 25.1875 8.62776 25.3417 8.01961C25.3481 7.99303 25.3546 7.96645 25.3613 7.93907C25.5216 7.29614 25.807 6.74105 26.2353 6.23553C26.2592 6.20643 26.2832 6.17733 26.3079 6.14734C26.4235 6.01018 26.4235 6.01018 26.4758 5.96106C26.4985 5.96106 26.5212 5.96106 26.5446 5.96106C26.5516 5.94177 26.5587 5.92249 26.5659 5.90262C26.6308 5.7947 26.7203 5.73208 26.8217 5.66085C26.8428 5.64596 26.8639 5.63107 26.8856 5.61574C28.1848 4.7295 29.8246 4.82114 31.0666 5.75413ZM27.4038 7.26481C27.375 7.29218 27.3463 7.31956 27.3167 7.34777C26.9976 7.68138 26.8546 8.06006 26.7508 8.49994C26.7439 8.52696 26.737 8.55399 26.73 8.58183C26.6209 9.30283 26.7744 10.0253 27.204 10.6164C27.566 11.0487 28.0171 11.3916 28.5937 11.4615C28.6864 11.4667 28.7781 11.4683 28.8709 11.4677C28.9038 11.4675 28.9367 11.4673 28.9705 11.4671C29.4139 11.4561 29.7746 11.3237 30.1189 11.0388C30.1474 11.0163 30.176 10.9937 30.2054 10.9705C30.6982 10.5585 30.9967 9.94815 31.0544 9.30835C31.0585 9.22029 31.0599 9.13276 31.0597 9.0446C31.0597 9.01321 31.0596 8.98181 31.0596 8.94946C31.0545 8.6673 31.0009 8.4246 30.9094 8.15685C30.8999 8.12355 30.8903 8.09024 30.8805 8.05593C30.7502 7.63457 30.4151 7.23749 30.0502 6.99033C30.0275 6.99033 30.0048 6.99033 29.9814 6.99033C29.9814 6.96769 29.9814 6.94505 29.9814 6.92172C29.0709 6.42373 28.1468 6.52545 27.4038 7.26481Z" fill="#4B99AE"/>
<path d="M17.3103 28.7394C17.5357 28.8722 17.6756 29.0372 17.7462 29.2914C17.7545 29.3904 17.7545 29.3904 17.754 29.4943C17.754 29.5334 17.754 29.5725 17.754 29.6129C17.7536 29.6546 17.7533 29.6963 17.7529 29.7393C17.7528 29.7824 17.7527 29.8255 17.7526 29.8699C17.7523 29.984 17.7517 30.098 17.7509 30.2121C17.7502 30.3287 17.7499 30.4453 17.7495 30.5619C17.7488 30.7903 17.7476 31.0186 17.7462 31.247C17.7675 31.2467 17.7889 31.2464 17.8109 31.2461C18.0339 31.243 18.2569 31.241 18.48 31.2395C18.5631 31.2388 18.6462 31.2378 18.7294 31.2367C18.8492 31.235 18.9689 31.2342 19.0887 31.2336C19.1256 31.2329 19.1626 31.2322 19.2006 31.2315C19.4213 31.2314 19.5909 31.2549 19.7739 31.3842C19.9788 31.5887 20.0541 31.7679 20.0639 32.0511C20.0561 32.3471 19.9479 32.5194 19.7623 32.7413C19.6395 32.848 19.5082 32.8681 19.3498 32.8673C19.2961 32.8673 19.2961 32.8673 19.2414 32.8673C19.1841 32.8668 19.1841 32.8668 19.1256 32.8662C19.0862 32.8662 19.0468 32.8661 19.0062 32.866C18.8804 32.8656 18.7547 32.8647 18.629 32.8638C18.5437 32.8635 18.4584 32.8632 18.3731 32.8629C18.1641 32.8621 17.9551 32.861 17.7462 32.8595C17.7465 32.8954 17.7465 32.8954 17.7469 32.9319C17.749 33.1581 17.7505 33.3842 17.7515 33.6103C17.7521 33.7265 17.7528 33.8427 17.754 33.9589C17.7552 34.0928 17.7558 34.2267 17.7563 34.3606C17.7568 34.4019 17.7573 34.4433 17.7579 34.4859C17.7579 34.7566 17.7309 34.9519 17.5829 35.184C17.4107 35.3559 17.2466 35.4217 17.0067 35.4358C16.7706 35.4273 16.6224 35.3249 16.4588 35.162C16.2791 34.9167 16.2889 34.6855 16.2926 34.3907C16.2928 34.3469 16.2929 34.3031 16.2931 34.2579C16.2936 34.1421 16.2945 34.0263 16.2956 33.9105C16.2967 33.7921 16.2972 33.6736 16.2977 33.5552C16.2988 33.3233 16.3005 33.0914 16.3027 32.8595C16.2808 32.8599 16.259 32.8602 16.2365 32.8605C16.0084 32.8635 15.7804 32.8656 15.5524 32.8671C15.4673 32.8678 15.3823 32.8687 15.2972 32.8699C15.1748 32.8716 15.0524 32.8723 14.93 32.8729C14.8921 32.8737 14.8543 32.8744 14.8153 32.8751C14.5548 32.8752 14.4109 32.8355 14.2088 32.6672C14.0146 32.4461 13.9915 32.2366 14.0022 31.9482C14.0259 31.7144 14.0892 31.5551 14.2674 31.3994C14.4202 31.2854 14.535 31.2427 14.7225 31.2431C14.7576 31.2431 14.7927 31.2431 14.8288 31.2431C14.8666 31.2433 14.9044 31.2435 14.9434 31.2437C14.9822 31.2437 15.0209 31.2438 15.0609 31.2438C15.1848 31.244 15.3088 31.2444 15.4327 31.2449C15.5167 31.245 15.6007 31.2452 15.6847 31.2453C15.8907 31.2457 16.0967 31.2463 16.3027 31.247C16.3024 31.2227 16.3021 31.1984 16.3018 31.1733C16.299 30.9432 16.2969 30.713 16.2956 30.4829C16.2949 30.3646 16.2939 30.2463 16.2923 30.128C16.2905 29.9917 16.2899 29.8555 16.2893 29.7192C16.2886 29.6771 16.2879 29.635 16.2871 29.5916C16.2871 29.3172 16.3154 29.127 16.5002 28.9132C16.5194 28.8979 16.5386 28.8826 16.5583 28.8668C16.5774 28.851 16.5965 28.8351 16.6162 28.8188C16.8219 28.6848 17.0789 28.6486 17.3103 28.7394Z" fill="#4689AD"/>
<path d="M39.3642 45.6569C39.4867 45.765 39.5756 45.8797 39.6627 46.0171C39.7616 46.1685 39.865 46.3143 39.9763 46.4567C40.1056 46.6222 40.2322 46.7893 40.3565 46.9585C40.3721 46.9796 40.3876 47.0007 40.4036 47.0224C40.4705 47.1136 40.5354 47.205 40.5974 47.2996C40.6603 47.3922 40.726 47.4797 40.795 47.5677C40.8275 47.6093 40.8275 47.6093 40.8607 47.6517C40.8772 47.6727 40.8937 47.6938 40.9107 47.7154C40.9109 47.6922 40.911 47.6689 40.9111 47.645C40.9126 47.4028 40.9149 47.1608 40.9179 46.9186C40.9188 46.8283 40.9196 46.7379 40.9201 46.6476C40.9208 46.5177 40.9224 46.3878 40.9242 46.258C40.9242 46.2176 40.9243 46.1772 40.9243 46.1356C40.9293 45.8562 40.9293 45.8562 41.0078 45.7182C41.1146 45.6306 41.1856 45.6178 41.3232 45.6226C41.4151 45.6898 41.4828 45.7441 41.5107 45.8583C41.5169 45.9366 41.5174 46.0132 41.5162 46.0917C41.5163 46.1213 41.5165 46.1509 41.5167 46.1814C41.5171 46.2789 41.5163 46.3765 41.5154 46.474C41.5154 46.5419 41.5154 46.6098 41.5154 46.6777C41.5154 46.8198 41.5147 46.962 41.5136 47.1041C41.5123 47.2864 41.5121 47.4686 41.5124 47.6509C41.5125 47.791 41.5121 47.9311 41.5115 48.0713C41.5112 48.1385 41.5111 48.2057 41.5112 48.2729C41.5111 48.3668 41.5104 48.4606 41.5094 48.5545C41.5095 48.5823 41.5096 48.6101 41.5097 48.6387C41.508 48.7507 41.5029 48.8332 41.4487 48.9326C41.3639 49.0107 41.2997 49.0169 41.1857 49.0192C41.0476 48.9523 40.9737 48.8762 40.8871 48.7512C40.8633 48.7173 40.8395 48.6835 40.815 48.6486C40.7899 48.6124 40.7648 48.5762 40.7389 48.5389C40.686 48.4644 40.6331 48.3901 40.5799 48.3159C40.5659 48.2962 40.5519 48.2765 40.5374 48.2563C40.4102 48.0783 40.2804 47.9021 40.1503 47.7262C40.1297 47.6983 40.1091 47.6704 40.0879 47.6416C40.048 47.5878 40.0082 47.5339 39.9683 47.48C39.8964 47.3828 39.8245 47.2855 39.753 47.1879C39.733 47.1608 39.713 47.1336 39.6924 47.1056C39.6362 47.0251 39.5862 46.9421 39.536 46.8577C39.5359 46.8823 39.5357 46.907 39.5356 46.9323C39.5343 47.1646 39.5324 47.3968 39.5297 47.629C39.5283 47.7483 39.5272 47.8677 39.5267 47.9871C39.5261 48.1244 39.5243 48.2617 39.5226 48.3989C39.5225 48.4418 39.5225 48.4846 39.5224 48.5287C39.5214 48.5884 39.5214 48.5884 39.5204 48.6494C39.5201 48.6844 39.5198 48.7195 39.5195 48.7556C39.4969 48.872 39.4563 48.9123 39.3642 48.9849C39.2375 49.0252 39.1826 49.0307 39.0613 48.9742C38.9861 48.9163 38.9861 48.9163 38.9517 48.8476C38.9483 48.7517 38.947 48.6566 38.9473 48.5606C38.9472 48.531 38.9472 48.5013 38.9471 48.4707C38.947 48.3723 38.9471 48.2738 38.9472 48.1754C38.9471 48.1072 38.9471 48.039 38.9471 47.9708C38.947 47.8277 38.9471 47.6847 38.9473 47.5416C38.9474 47.358 38.9473 47.1743 38.9471 46.9906C38.947 46.8497 38.947 46.7089 38.9471 46.568C38.9472 46.5003 38.9471 46.4325 38.947 46.3648C38.947 46.2702 38.9471 46.1757 38.9473 46.0811C38.9472 46.0529 38.9471 46.0247 38.9471 45.9957C38.9478 45.802 38.9478 45.802 38.9861 45.7255C39.0088 45.7255 39.0315 45.7255 39.0548 45.7255C39.0548 45.7029 39.0548 45.6802 39.0548 45.6569C39.1657 45.6016 39.246 45.6289 39.3642 45.6569Z" fill="#9B9B9B"/>
<path d="M33.4577 45.6126C33.4929 45.6122 33.5282 45.6118 33.5644 45.6113C33.6212 45.6112 33.6212 45.6112 33.6791 45.6111C33.7377 45.6107 33.7377 45.6107 33.7975 45.6104C33.8801 45.61 33.9627 45.6099 34.0453 45.6099C34.1716 45.6097 34.2979 45.6085 34.4243 45.6072C34.5045 45.607 34.5848 45.6068 34.6651 45.6068C34.7028 45.6063 34.7406 45.6058 34.7795 45.6053C35.0417 45.6069 35.0417 45.6069 35.1772 45.6881C35.2602 45.7832 35.2727 45.8419 35.2814 45.9645C35.2693 46.0814 35.2114 46.1528 35.1367 46.2402C35.0581 46.2794 35.0149 46.2786 34.9276 46.2784C34.8843 46.2784 34.8843 46.2784 34.8401 46.2784C34.7933 46.2781 34.7933 46.2781 34.7455 46.2778C34.7135 46.2778 34.6816 46.2777 34.6487 46.2777C34.5464 46.2775 34.4442 46.2771 34.3419 46.2766C34.2727 46.2764 34.2035 46.2763 34.1342 46.2761C33.9643 46.2758 33.7944 46.2751 33.6245 46.2745C33.6245 46.5009 33.6245 46.7274 33.6245 46.9607C33.7043 46.9583 33.7842 46.9559 33.8665 46.9534C33.9442 46.9518 34.0219 46.9506 34.0996 46.9493C34.1534 46.9483 34.2073 46.9469 34.2611 46.9451C34.3387 46.9426 34.4162 46.9415 34.4938 46.9406C34.5177 46.9395 34.5416 46.9384 34.5662 46.9373C34.6617 46.9373 34.7365 46.943 34.8126 47.0036C34.8964 47.0986 34.9299 47.1631 34.9498 47.2887C34.9274 47.4253 34.8917 47.4825 34.793 47.5782C34.6714 47.6187 34.5751 47.6164 34.4468 47.6159C34.4115 47.6158 34.4115 47.6158 34.3755 47.6157C34.3006 47.6155 34.2257 47.6151 34.1507 47.6147C34.0999 47.6145 34.049 47.6143 33.9982 47.6142C33.8736 47.6139 33.749 47.6132 33.6245 47.6125C33.6245 47.8729 33.6245 48.1333 33.6245 48.4016C33.7815 48.3981 33.7815 48.3981 33.9417 48.3944C34.0433 48.3928 34.1449 48.3916 34.2464 48.3903C34.3169 48.3893 34.3875 48.3879 34.458 48.3861C34.5594 48.3836 34.6608 48.3824 34.7623 48.3815C34.7937 48.3805 34.8251 48.3794 34.8575 48.3783C35.0708 48.3782 35.0708 48.3782 35.1609 48.4451C35.2364 48.5314 35.2728 48.5999 35.2935 48.7126C35.2695 48.8374 35.2262 48.8956 35.1367 48.9849C35.0357 49.0185 34.969 49.0239 34.8637 49.0247C34.8119 49.0252 34.8119 49.0252 34.7591 49.0257C34.7218 49.0259 34.6845 49.026 34.6461 49.0262C34.5886 49.0265 34.5886 49.0265 34.5299 49.0268C34.4487 49.0271 34.3675 49.0273 34.2864 49.0275C34.1622 49.0278 34.0381 49.0289 33.9139 49.0299C33.8351 49.0302 33.7562 49.0303 33.6774 49.0305C33.6217 49.0311 33.6217 49.0311 33.5649 49.0318C33.2352 49.0308 33.2352 49.0308 33.1089 48.9163C33.0207 48.7881 33.0303 48.6518 33.0308 48.5022C33.0306 48.4744 33.0304 48.4466 33.0302 48.4179C33.0298 48.3261 33.0298 48.2343 33.0299 48.1424C33.0297 48.0785 33.0296 48.0146 33.0294 47.9507C33.0292 47.8167 33.0292 47.6827 33.0294 47.5487C33.0296 47.3772 33.029 47.2057 33.0282 47.0342C33.0277 46.9021 33.0276 46.7701 33.0277 46.638C33.0277 46.5748 33.0275 46.5116 33.0272 46.4484C33.0268 46.3598 33.027 46.2713 33.0274 46.1828C33.027 46.1438 33.027 46.1438 33.0266 46.1041C33.0282 45.9414 33.0529 45.8273 33.1433 45.6912C33.2449 45.6175 33.3342 45.6137 33.4577 45.6126Z" fill="#9A9A9A"/>
<path d="M29.8784 45.6569C29.9469 45.7111 29.9769 45.7506 30.0159 45.8284C30.0188 45.916 30.0198 46.0027 30.0192 46.0903C30.0192 46.1132 30.0191 46.136 30.0191 46.1596C30.0189 46.245 30.0184 46.3305 30.018 46.416C30.0173 46.607 30.0166 46.7981 30.0159 46.9949C30.5035 46.9949 30.9912 46.9949 31.4937 46.9949C31.4883 46.6059 31.4883 46.6059 31.4813 46.2169C31.4809 46.168 31.4806 46.1191 31.4803 46.0702C31.4796 46.045 31.4789 46.0197 31.4781 45.9937C31.4781 45.8738 31.4837 45.8074 31.557 45.7102C31.6537 45.6407 31.7183 45.625 31.8374 45.6226C31.9428 45.6656 31.9941 45.697 32.0478 45.7979C32.0863 45.9243 32.0878 46.0439 32.0874 46.1746C32.0876 46.2021 32.0878 46.2296 32.0879 46.2579C32.0884 46.3484 32.0884 46.4389 32.0883 46.5295C32.0884 46.5926 32.0886 46.6557 32.0888 46.7188C32.089 46.851 32.089 46.9831 32.0888 47.1153C32.0886 47.2845 32.0892 47.4536 32.09 47.6228C32.0905 47.7531 32.0905 47.8834 32.0904 48.0137C32.0904 48.0761 32.0906 48.1384 32.091 48.2008C32.0914 48.2881 32.0912 48.3754 32.0908 48.4626C32.091 48.4883 32.0913 48.5139 32.0916 48.5403C32.0899 48.7018 32.0637 48.8148 31.9749 48.9506C31.8589 49.0042 31.8589 49.0042 31.7343 49.0192C31.632 48.9738 31.5724 48.9262 31.4937 48.8476C31.4877 48.7566 31.4857 48.6692 31.487 48.5782C31.4871 48.5547 31.4871 48.5312 31.4872 48.5069C31.4876 48.4189 31.4885 48.3309 31.4894 48.2429C31.4908 48.0462 31.4922 47.8495 31.4937 47.6468C31.006 47.6468 30.5183 47.6468 30.0159 47.6468C30.0213 48.023 30.0213 48.023 30.0282 48.3992C30.0286 48.4466 30.029 48.494 30.0293 48.5414C30.03 48.5657 30.0307 48.59 30.0314 48.6151C30.0315 48.739 30.0191 48.8081 29.9527 48.9141C29.8586 49.0037 29.8012 49.0165 29.6722 49.0192C29.5905 48.987 29.5905 48.987 29.5347 48.9506C29.5347 48.9279 29.5347 48.9053 29.5347 48.8819C29.512 48.8706 29.4893 48.8593 29.466 48.8476C29.4636 48.4519 29.4617 48.0561 29.4606 47.6603C29.4601 47.4766 29.4593 47.2928 29.4582 47.1091C29.4571 46.9318 29.4564 46.7545 29.4562 46.5772C29.456 46.5095 29.4556 46.4418 29.4551 46.3741C29.4543 46.2794 29.4542 46.1847 29.4542 46.09C29.4539 46.0619 29.4535 46.0339 29.4531 46.005C29.4537 45.8923 29.4577 45.8093 29.5118 45.7091C29.6298 45.6014 29.7324 45.6204 29.8784 45.6569Z" fill="#9A9A9A"/>
<path d="M37.7143 45.8284C37.8311 45.9321 37.9054 46.03 37.9374 46.1843C37.9447 46.3138 37.9349 46.389 37.8647 46.4996C37.7535 46.5668 37.7055 46.5736 37.5768 46.5489C37.5027 46.5012 37.4351 46.4486 37.3663 46.3935C37.2143 46.2746 37.0797 46.2581 36.8895 46.2745C36.8019 46.3013 36.731 46.3348 36.6489 46.3774C36.6094 46.4562 36.6039 46.5173 36.5952 46.6047C36.5923 46.6327 36.5894 46.6608 36.5865 46.6897C36.5844 46.7111 36.5823 46.7326 36.5801 46.7548C36.6822 46.798 36.7849 46.8344 36.8908 46.8667C37.3268 47.0008 37.7524 47.1547 37.9901 47.5712C38.0916 47.7962 38.0966 48.0551 38.0318 48.2912C37.9148 48.5979 37.7653 48.7942 37.4737 48.9506C37.1911 49.0661 36.8162 49.0695 36.5286 48.9656C36.2891 48.8515 36.0379 48.6483 35.9271 48.4016C35.8964 48.244 35.9077 48.1309 35.9808 47.9878C36.0646 47.9213 36.0646 47.9213 36.1828 47.8999C36.3362 47.9267 36.3808 47.9728 36.477 48.0928C36.4941 48.1226 36.5111 48.1523 36.5286 48.1829C36.5942 48.2866 36.6385 48.3191 36.752 48.3673C36.9742 48.4163 37.1401 48.4186 37.3363 48.2987C37.4254 48.1983 37.4462 48.1163 37.4522 47.9856C37.4518 47.8587 37.4518 47.8587 37.3965 47.7971C37.3279 47.7432 37.2653 47.7144 37.1837 47.6833C37.1533 47.6716 37.1229 47.6598 37.0915 47.6478C36.9905 47.6118 36.8887 47.58 36.7864 47.5482C36.5244 47.4623 36.2452 47.3431 36.099 47.0979C35.9693 46.8389 35.9489 46.5613 36.0209 46.2797C36.1431 45.9506 36.3031 45.816 36.6133 45.6637C36.9992 45.5115 37.378 45.6036 37.7143 45.8284Z" fill="#9B9B9B"/>
<path d="M19.5421 38.1174C19.7436 38.3186 19.8128 38.5207 19.8192 38.8015C19.8161 39.0487 19.7767 39.2292 19.6067 39.4138C19.3853 39.6172 19.2096 39.6672 18.9106 39.6614C18.6951 39.6426 18.5728 39.5355 18.4337 39.3783C18.266 39.1679 18.215 38.9553 18.2318 38.69C18.2702 38.4115 18.385 38.2311 18.6028 38.0543C18.9102 37.8461 19.2569 37.9203 19.5421 38.1174Z" fill="#686868"/>
<path d="M26.6133 18.1065C26.6473 18.1065 26.6813 18.1065 26.7164 18.1065C26.7208 19.3647 26.7157 20.6226 26.7002 21.8807C26.6825 23.3227 26.6725 24.7646 26.6633 26.2066C26.6627 26.2959 26.6621 26.3852 26.6615 26.4745C26.6568 27.2076 26.6522 27.9407 26.6476 28.6738C26.6363 28.6738 26.625 28.6738 26.6133 28.6738C26.6133 25.1866 26.6133 21.6994 26.6133 18.1065Z" fill="#488FB3"/>
<path d="M16.2683 25.6203C16.3023 25.6373 16.3023 25.6373 16.337 25.6546C16.337 26.3226 16.337 26.9906 16.337 27.6789C16.3824 27.6902 16.4278 27.7015 16.4745 27.7132C16.4178 27.7358 16.3611 27.7585 16.3027 27.7818C16.2683 27.7475 16.2683 27.7475 16.2642 27.6626C16.2642 27.6249 16.2643 27.5872 16.2644 27.5483C16.2644 27.5057 16.2644 27.4631 16.2644 27.4193C16.2646 27.3724 16.2648 27.3256 16.2649 27.2788C16.265 27.2312 16.265 27.1835 16.2651 27.1359C16.2652 27.0103 16.2656 26.8847 16.2659 26.759C16.2663 26.631 16.2664 26.5029 16.2666 26.3748C16.267 26.1233 16.2676 25.8718 16.2683 25.6203Z" fill="#4B9BB2"/>
<path d="M28.6755 15.8078C28.8116 15.8078 28.9477 15.8078 29.088 15.8078C29.088 15.8418 29.088 15.8757 29.088 15.9107C28.9519 15.9107 28.8158 15.9107 28.6755 15.9107C28.6755 15.8768 28.6755 15.8428 28.6755 15.8078Z" fill="#4993B4"/>
<path d="M19.7395 23.5617C19.8529 23.5617 19.9663 23.5617 20.0832 23.5617C20.0832 23.5957 20.0832 23.6296 20.0832 23.6646C19.9698 23.6646 19.8564 23.6646 19.7395 23.6646C19.7395 23.6307 19.7395 23.5967 19.7395 23.5617Z" fill="#479AAC"/>
<path d="M16.5433 24.5566C16.566 24.568 16.5887 24.5793 16.612 24.5909C16.578 24.6928 16.544 24.7947 16.5089 24.8997C16.4862 24.8884 16.4636 24.8771 16.4402 24.8654C16.4573 24.7373 16.4703 24.666 16.5433 24.5566Z" fill="#4A9AAF"/>
<path d="M19.2585 12.8229C19.2585 12.8456 19.2585 12.8682 19.2585 12.8916C19.2145 12.8965 19.1706 12.9015 19.1253 12.9066C19.0434 12.9158 18.9889 12.9232 18.9148 12.9602C18.9148 12.9262 18.9148 12.8922 18.9148 12.8572C19.031 12.8216 19.1374 12.8202 19.2585 12.8229Z" fill="#51A7B3"/>
<path d="M16.4059 24.9684C16.4286 24.991 16.4513 25.0137 16.4746 25.037C16.4519 25.1163 16.4293 25.1955 16.4059 25.2772C16.3832 25.2772 16.3605 25.2772 16.3372 25.2772C16.3672 25.007 16.3672 25.007 16.4059 24.9684Z" fill="#4E9AB5"/>
<path d="M25.2729 17.7977C25.2956 17.8091 25.3183 17.8204 25.3416 17.832C25.3416 17.9226 25.3416 18.0132 25.3416 18.1065C25.2879 18.0679 25.2879 18.0679 25.2385 18.0036C25.2493 17.8942 25.2493 17.8942 25.2729 17.7977Z" fill="#4A94B2"/>
<path d="M25.3073 8.53424C25.3186 8.53424 25.33 8.53424 25.3417 8.53424C25.3481 8.65003 25.3481 8.65003 25.3417 8.77441C25.3076 8.79705 25.2736 8.81969 25.2386 8.84302C25.2316 8.71864 25.2435 8.6418 25.3073 8.53424Z" fill="#4EA2B3"/>
</svg>
