<svg xmlns="http://www.w3.org/2000/svg" width="55" height="55" viewBox="0 0 55 55"><defs><style>.a{fill:#f4f7fb;}.b{fill:#306db5;}.c{fill:#7eb7db;}</style></defs><g transform="translate(-820 -497)"><g transform="translate(-319.5 -348)"><g transform="translate(1139.5 845)"><rect class="a" width="55" height="55" rx="15"/></g></g><g transform="translate(826.089 507.002)"><path class="b" d="M28.539,19.582a5.422,5.422,0,0,1-5.24-4.729,1.762,1.762,0,0,1-.987-.627,1.983,1.983,0,0,1-.369-1.35,1.862,1.862,0,0,1,.439-1.448,1.362,1.362,0,0,1,.328-.247,7.157,7.157,0,0,1-1.066-4.065,3.98,3.98,0,0,1,4.022-3.7,3.966,3.966,0,0,1,1.426-1.052,5.025,5.025,0,0,1,3.23-.18A5.769,5.769,0,0,1,34.482,5.3c.945,2.166.116,4.659-.36,5.779a1.378,1.378,0,0,1,.491.282,1.8,1.8,0,0,1,.5,1.512,1.98,1.98,0,0,1-.369,1.35,1.764,1.764,0,0,1-.987.627A5.415,5.415,0,0,1,28.539,19.582ZM23.462,11.9a.609.609,0,0,0-.435.155,1.072,1.072,0,0,0-.184.8.462.462,0,0,1,0,.09,1.111,1.111,0,0,0,.189.731,1.027,1.027,0,0,0,.72.341.45.45,0,0,1,.4.409c.015.167.414,4.12,4.4,4.251,3.96-.13,4.361-4.083,4.375-4.252a.45.45,0,0,1,.4-.408,1.026,1.026,0,0,0,.72-.341,1.113,1.113,0,0,0,.189-.735.471.471,0,0,1,0-.087,1.072,1.072,0,0,0-.2-.826.683.683,0,0,0-.489-.128.45.45,0,0,1-.475-.656c.017-.031,1.665-3.16.606-5.591A4.925,4.925,0,0,0,30.1,3.052a4.121,4.121,0,0,0-2.643.135,3.026,3.026,0,0,0-1.212.949.446.446,0,0,1-.4.18,3.1,3.1,0,0,0-3.3,2.892h0a5.947,5.947,0,0,0,1.295,3.935.45.45,0,0,1,.085.495.426.426,0,0,1-.426.266Z" transform="translate(-7.55 0)"/><path class="b" d="M35.141,16.627a.45.45,0,0,1-.45-.431c-.005-.117-.145-2.835-2.174-3.1a6.851,6.851,0,0,1-5.225-1.514,4.814,4.814,0,0,0-1.641,4.541.45.45,0,0,1-.895.081c-.373-4.1,2.262-5.529,2.374-5.587a.45.45,0,0,1,.519.074A6.009,6.009,0,0,0,32.431,12.2a.5.5,0,0,1,.125,0c2.288.238,2.986,2.7,3.036,3.96a.45.45,0,0,1-.431.467Z" transform="translate(-9.245 -4.715)"/><path class="b" d="M33.639,58.013H8.361a.45.45,0,0,1-.45-.45V52.547A5.988,5.988,0,0,1,13.9,46.571h.864a.45.45,0,1,1,0,.9H13.9a5.087,5.087,0,0,0-5.085,5.076v4.566H33.189V52.547a5.082,5.082,0,0,0-5.076-5.076h-.926a.45.45,0,1,1,0-.9h.926a5.985,5.985,0,0,1,5.976,5.976v5.016A.45.45,0,0,1,33.639,58.013Z" transform="translate(0 -24.517)"/><path class="b" d="M39.792,56.169a.45.45,0,0,1-.445-.517L41.168,43.6a.45.45,0,0,1,.575-.364l3.143.947a.45.45,0,0,1,.274.63L43.909,47.32l.724.813a.45.45,0,0,1,.045.536l-4.5,7.286A.45.45,0,0,1,39.792,56.169Zm2.189-11.92-1.415,9.365,3.174-5.13-.7-.79a.45.45,0,0,1-.067-.5l1.147-2.3Z" transform="translate(-17.288 -22.672)"/><path class="b" d="M26.924,56.17a.45.45,0,0,1-.383-.213l-4.506-7.285a.45.45,0,0,1,.045-.536l.724-.813-1.249-2.506a.45.45,0,0,1,.274-.63l3.143-.947a.45.45,0,0,1,.574.364l1.822,12.051a.45.45,0,0,1-.444.516Zm-3.947-7.686,3.174,5.13L24.735,44.25l-2.135.643,1.146,2.3a.45.45,0,0,1-.067.5Z" transform="translate(-7.479 -22.674)"/><path class="b" d="M32.959,52.042a24.4,24.4,0,0,1-2.911-.176.45.45,0,1,1,.107-.893,22.686,22.686,0,0,0,5.538,0,.45.45,0,1,1,.112.893A22.724,22.724,0,0,1,32.959,52.042Z" transform="translate(-11.951 -26.935)"/><path class="b" d="M42.971,40.872a.45.45,0,0,1-.36-.182,6.533,6.533,0,0,1-.8-2.9.45.45,0,0,1,.423-.475.455.455,0,0,1,.475.423,5.745,5.745,0,0,0,.626,2.414.45.45,0,0,1-.36.717Z" transform="translate(-18.645 -19.427)"/><path class="b" d="M28.946,40.87a.45.45,0,0,1-.36-.717,5.738,5.738,0,0,0,.626-2.414.451.451,0,1,1,.9.052,6.57,6.57,0,0,1-.8,2.9.45.45,0,0,1-.365.182Z" transform="translate(-11.324 -19.425)"/><path class="b" d="M54.918,51.745a.45.45,0,0,1-.45-.437c-.084-2.93-1.2-3.852-1.209-3.861a.453.453,0,0,1-.078-.63.447.447,0,0,1,.623-.086c.059.045,1.466,1.137,1.564,4.551a.45.45,0,0,1-.436.463Z" transform="translate(-24.849 -24.556)"/><path class="c" d="M54.985,59.539a1.779,1.779,0,1,1,1.778-1.779,1.779,1.779,0,0,1-1.778,1.779Zm0-2.657a.879.879,0,1,0,.878.879.879.879,0,0,0-.878-.879Z" transform="translate(-24.914 -29.693)"/><path class="b" d="M15.505,51.776a.45.45,0,0,1-.45-.418c-.245-3.453,1.658-4.557,1.739-4.6a.45.45,0,0,1,.442.784c-.068.041-1.485.915-1.284,3.755a.45.45,0,0,1-.417.481Z" transform="translate(-3.918 -24.586)"/><path class="c" d="M12.89,60.357a.45.45,0,0,1-.36-.177,2.813,2.813,0,0,1-.477-.967,2.705,2.705,0,0,1,1.768-3.371,2.52,2.52,0,0,1,1.935.239,2.888,2.888,0,0,1,1.4,2.975.45.45,0,1,1-.888-.148,1.99,1.99,0,0,0-.957-2.043,1.628,1.628,0,0,0-1.25-.159,1.806,1.806,0,0,0-1.147,2.266,1.92,1.92,0,0,0,.327.661.45.45,0,0,1-.358.722Z" transform="translate(-2.213 -29.564)"/><path class="b" d="M21.405,62.766a.359.359,0,0,1-.054,0l-.507-.06a.45.45,0,1,1,.106-.894l.507.06a.45.45,0,0,1-.053.9Z" transform="translate(-6.895 -32.896)"/><path class="b" d="M13.508,64.655a.45.45,0,0,1-.157-.872l.54-.2a.45.45,0,1,1,.315.844l-.54.2a.45.45,0,0,1-.158.028Z" transform="translate(-2.831 -33.859)"/></g></g></svg>