<svg xmlns="http://www.w3.org/2000/svg" xmlns:xlink="http://www.w3.org/1999/xlink" width="55" height="55" viewBox="0 0 55 55"><defs><style>.a{fill:#f4f7fb;}.b{fill:#2c356c;}.c{fill:url(#a);}</style><linearGradient id="a" x1="0.09" y1="0.688" x2="0.964" y2="0.298" gradientUnits="objectBoundingBox"><stop offset="0" stop-color="#232c60"/><stop offset="1" stop-color="#5bbd88"/></linearGradient></defs><g transform="translate(-1139.5 -844.919)"><g transform="translate(1139.5 844.919)"><rect class="a" width="55" height="55" rx="15"/></g><g transform="translate(1042.452 1279.732)"><path class="b" d="M116.992-417.76a10.343,10.343,0,0,0-4.091,1.152,10.44,10.44,0,0,0-4.033,3.624c-.507.778-.634,1.043-.634,1.36a.667.667,0,0,0,.812.7c.305-.04.449-.179.772-.755a9.743,9.743,0,0,1,3.658-3.561,9.483,9.483,0,0,1,3.157-1c.939-.127,16.483-.127,17.411-.006a9.331,9.331,0,0,1,4.05,1.544,11.443,11.443,0,0,1,2.4,2.408,9.1,9.1,0,0,1,.628,9.247,8.484,8.484,0,0,1-1.746,2.368,8.9,8.9,0,0,1-4.77,2.57l-.645.133H116.733l-.64-.127a9.218,9.218,0,0,1-7.219-6.8l-.15-.593.173-.127a1.99,1.99,0,0,0,.616-.732,1.481,1.481,0,0,0,.133-.778,1.336,1.336,0,0,0-.156-.807,1.731,1.731,0,0,0-1.527-1,1.785,1.785,0,0,0-1.717.916,1.511,1.511,0,0,0-.19.812,1.34,1.34,0,0,0,.115.807,1.689,1.689,0,0,0,.772.858c.294.167.305.19.369.5a13.138,13.138,0,0,0,.7,2.212,10.629,10.629,0,0,0,8.947,6.326c1.008.081,15.769.081,16.777,0a10.192,10.192,0,0,0,4-1.129,12.612,12.612,0,0,0,1.377-.818,13.059,13.059,0,0,0,2.04-1.9,10.78,10.78,0,0,0,2.316-5.277,14.073,14.073,0,0,0,0-3.036,10.7,10.7,0,0,0-7.236-8.608,11.08,11.08,0,0,0-2.668-.5C132.6-417.829,117.966-417.829,116.992-417.76Zm-8.6,9.979a.844.844,0,0,1,.063,1.227.832.832,0,0,1-1.4-.271.769.769,0,0,1,.086-.772A.838.838,0,0,1,108.4-407.782Z" transform="translate(0 0)"/><path class="b" d="M234.751-296.891a.67.67,0,0,0-.369.674.661.661,0,0,0,.127.455c.2.259.426.317,1.216.317.962,0,1.233.081,1.659.513a2.752,2.752,0,0,1,.686,2v.305h-2.2c-2.045,0-2.224.012-2.449.109a.72.72,0,0,0-.421.749.709.709,0,0,0,.444.691c.121.046,2.518.063,9.207.052,8.527-.017,9.057-.023,9.23-.121a1.925,1.925,0,0,0,.726-.7c.121-.225.127-.311.144-2.011.017-1.671.012-1.769-.086-1.769-.058,0-.4.052-.766.115s-.68.115-.7.115a6.187,6.187,0,0,0-.046,1.095c0,1.221-.029,1.354-.363,1.556-.179.109-.311.115-3.221.115h-3.042v-.807c0-.6-.017-.807-.069-.807s-.374.052-.737.115-.68.115-.7.115a2.481,2.481,0,0,0-.046.691v.691h-3.284v-.363a4.416,4.416,0,0,0-1.008-3.2,3.694,3.694,0,0,0-2.84-.812C235.045-297,234.907-296.983,234.751-296.891Z" transform="translate(-119.638 -113.852)"/><path class="b" d="M594.163-290.757c-.374.2-.4.323-.4,1.947,0,2.149-.161,3.14-.611,3.8a6.279,6.279,0,0,1-.611.737c-.357.375-.409.455-.438.691a.7.7,0,0,0,.749.83c.277,0,.374-.052.864-.478a4,4,0,0,0,1.458-2.748,33.9,33.9,0,0,0,.19-3.814c-.023-.634-.1-.807-.455-.979A.742.742,0,0,0,594.163-290.757Z" transform="translate(-458.049 -119.635)"/><path class="c" d="M250,2656.88l9.694-1.592a1.543,1.543,0,0,0-2-1.316c-1.846.317-5.976,1-5.976,1h-.166v-.681s-.166-.741-.787-.68a.8.8,0,0,0-.726.6Z" transform="translate(-126.644 -3065.221)"/></g></g></svg>