<svg width="859" height="747" viewBox="0 0 859 747" fill="none" xmlns="http://www.w3.org/2000/svg">
<g opacity="0.3">
<g opacity="0.15">
<mask id="mask0_1653_6345" style="mask-type:luminance" maskUnits="userSpaceOnUse" x="43" y="325" width="116" height="42">
<path d="M50.7006 325.843H150.955C152.979 325.843 154.921 326.647 156.353 328.079C157.784 329.511 158.589 331.452 158.589 333.477V358.877C158.589 360.902 157.784 362.843 156.353 364.275C154.921 365.707 152.979 366.511 150.955 366.511H50.7026C48.6785 366.511 46.7372 365.707 45.3056 364.276C43.874 362.845 43.0694 360.904 43.0686 358.88V333.475C43.0686 331.451 43.8727 329.51 45.304 328.078C46.7352 326.647 48.6765 325.843 50.7006 325.843Z" fill="white"/>
</mask>
<g mask="url(#mask0_1653_6345)">
<path d="M158.589 325.843H43.0686V366.514H158.589V325.843Z" fill="url(#paint0_linear_1653_6345)"/>
</g>
<mask id="mask1_1653_6345" style="mask-type:luminance" maskUnits="userSpaceOnUse" x="409" y="325" width="282" height="42">
<path d="M429.695 325.843C424.301 325.843 419.129 327.986 415.315 331.799C411.501 335.613 409.359 340.786 409.359 346.179C409.359 351.572 411.501 356.745 415.315 360.559C419.129 364.372 424.301 366.515 429.695 366.515H669.875C675.268 366.515 680.441 364.372 684.254 360.559C688.068 356.745 690.211 351.572 690.211 346.179C690.211 340.786 688.068 335.613 684.254 331.799C680.441 327.986 675.268 325.843 669.875 325.843H429.695Z" fill="white"/>
</mask>
<g mask="url(#mask1_1653_6345)">
<path d="M690.202 325.843H409.356V366.514H690.202V325.843Z" fill="url(#paint1_linear_1653_6345)"/>
</g>
<mask id="mask2_1653_6345" style="mask-type:luminance" maskUnits="userSpaceOnUse" x="449" y="271" width="278" height="42">
<path d="M470.184 271.539C464.791 271.539 459.619 273.681 455.806 277.494C451.993 281.308 449.851 286.479 449.851 291.872C449.851 297.265 451.993 302.436 455.806 306.25C459.619 310.063 464.791 312.205 470.184 312.205H706.405C711.797 312.205 716.969 310.063 720.782 306.25C724.595 302.436 726.738 297.265 726.738 291.872C726.738 286.479 724.595 281.308 720.782 277.494C716.969 273.681 711.797 271.539 706.405 271.539H470.184Z" fill="white"/>
</mask>
<g mask="url(#mask2_1653_6345)">
<path d="M726.735 271.539H449.847V312.205H726.735V271.539Z" fill="url(#paint2_linear_1653_6345)"/>
</g>
<mask id="mask3_1653_6345" style="mask-type:luminance" maskUnits="userSpaceOnUse" x="486" y="217" width="281" height="41">
<path d="M506.905 217.232C501.512 217.232 496.34 219.374 492.526 223.188C488.713 227.001 486.571 232.173 486.571 237.566C486.571 242.959 488.713 248.131 492.526 251.944C496.34 255.758 501.512 257.9 506.905 257.9H746.246C751.638 257.9 756.811 255.758 760.624 251.944C764.437 248.131 766.58 242.959 766.58 237.566C766.58 232.173 764.437 227.001 760.624 223.188C756.811 219.374 751.638 217.232 746.246 217.232H506.905Z" fill="white"/>
</mask>
<g mask="url(#mask3_1653_6345)">
<path d="M766.58 217.232H486.568V257.901H766.58V217.232Z" fill="url(#paint3_linear_1653_6345)"/>
</g>
<mask id="mask4_1653_6345" style="mask-type:luminance" maskUnits="userSpaceOnUse" x="528" y="162" width="276" height="42">
<path d="M548.335 162.922C542.966 162.96 537.83 165.119 534.047 168.928C530.264 172.738 528.141 177.889 528.141 183.257C528.141 188.626 530.264 193.777 534.047 197.587C537.83 201.396 542.966 203.555 548.335 203.593H783.498C786.18 203.612 788.84 203.1 791.323 202.086C793.807 201.073 796.066 199.578 797.969 197.688C799.873 195.797 801.384 193.549 802.415 191.073C803.445 188.596 803.976 185.94 803.976 183.257C803.976 180.575 803.445 177.919 802.415 175.442C801.384 172.966 799.873 170.718 797.969 168.827C796.066 166.937 793.807 165.442 791.323 164.429C788.84 163.415 786.18 162.903 783.498 162.922H548.335Z" fill="white"/>
</mask>
<g mask="url(#mask4_1653_6345)">
<path d="M803.834 162.922H528.001V203.593H803.834V162.922Z" fill="url(#paint4_linear_1653_6345)"/>
</g>
<mask id="mask5_1653_6345" style="mask-type:luminance" maskUnits="userSpaceOnUse" x="564" y="108" width="280" height="42">
<path d="M585.053 108.614C579.66 108.614 574.487 110.756 570.674 114.57C566.86 118.383 564.718 123.555 564.718 128.949C564.718 134.342 566.86 139.514 570.674 143.327C574.487 147.141 579.66 149.283 585.053 149.283H823.266C825.936 149.283 828.58 148.757 831.047 147.735C833.514 146.713 835.756 145.215 837.644 143.327C839.533 141.439 841.03 139.197 842.052 136.73C843.074 134.263 843.6 131.619 843.6 128.949C843.6 126.278 843.074 123.634 842.052 121.167C841.03 118.7 839.533 116.458 837.644 114.57C835.756 112.682 833.514 111.184 831.047 110.162C828.58 109.14 825.936 108.614 823.266 108.614H585.053Z" fill="white"/>
</mask>
<g mask="url(#mask5_1653_6345)">
<path d="M843.598 108.617H564.721V149.286H843.598V108.617Z" fill="url(#paint5_linear_1653_6345)"/>
</g>
<mask id="mask6_1653_6345" style="mask-type:luminance" maskUnits="userSpaceOnUse" x="605" y="54" width="254" height="41">
<path d="M625.55 54.3101C620.157 54.3101 614.985 56.4524 611.171 60.2657C607.358 64.0791 605.216 69.2511 605.216 74.644C605.216 80.037 607.358 85.209 611.171 89.0224C614.985 92.8357 620.157 94.9781 625.55 94.9781H838.204C843.597 94.9781 848.769 92.8357 852.582 89.0224C856.395 85.209 858.538 80.037 858.538 74.644C858.538 69.2511 856.395 64.0791 852.582 60.2657C848.769 56.4524 843.597 54.3101 838.204 54.3101H625.55Z" fill="white"/>
</mask>
<g mask="url(#mask6_1653_6345)">
<path d="M858.534 54.3101H605.213V94.9781H858.534V54.3101Z" fill="url(#paint6_linear_1653_6345)"/>
</g>
<mask id="mask7_1653_6345" style="mask-type:luminance" maskUnits="userSpaceOnUse" x="643" y="0" width="195" height="41">
<path d="M663.853 0C658.459 0 653.287 2.14248 649.473 5.95613C645.66 9.76978 643.517 14.9422 643.517 20.3355C643.517 25.7288 645.66 30.9012 649.473 34.7149C653.287 38.5285 658.459 40.671 663.853 40.671H816.967C822.36 40.671 827.532 38.5285 831.346 34.7149C835.16 30.9012 837.302 25.7288 837.302 20.3355C837.302 14.9422 835.16 9.76978 831.346 5.95613C827.532 2.14248 822.36 0 816.967 0H663.853Z" fill="white"/>
</mask>
<g mask="url(#mask7_1653_6345)">
<path d="M837.301 0H643.518V40.671H837.301V0Z" fill="url(#paint7_linear_1653_6345)"/>
</g>
<mask id="mask8_1653_6345" style="mask-type:luminance" maskUnits="userSpaceOnUse" x="0" y="380" width="228" height="41">
<path d="M20.4756 380.154C15.0827 380.154 9.91066 382.296 6.09729 386.11C2.28393 389.923 0.141602 395.095 0.141602 400.488C0.141602 405.881 2.28393 411.053 6.09729 414.866C9.91066 418.68 15.0827 420.822 20.4756 420.822H207.244C212.637 420.822 217.809 418.68 221.622 414.866C225.435 411.053 227.578 405.881 227.578 400.488C227.578 395.095 225.435 389.923 221.622 386.11C217.809 382.296 212.637 380.154 207.244 380.154H20.4756Z" fill="white"/>
</mask>
<g mask="url(#mask8_1653_6345)">
<path d="M227.578 380.154H0.140594V420.822H227.578V380.154Z" fill="url(#paint8_linear_1653_6345)"/>
</g>
<mask id="mask9_1653_6345" style="mask-type:luminance" maskUnits="userSpaceOnUse" x="369" y="380" width="281" height="41">
<path d="M389.675 380.154C384.282 380.154 379.11 382.296 375.296 386.11C371.483 389.923 369.341 395.095 369.341 400.488C369.341 405.881 371.483 411.053 375.296 414.866C379.11 418.68 384.282 420.822 389.675 420.822H628.721C634.113 420.822 639.285 418.68 643.099 414.866C646.912 411.053 649.055 405.881 649.055 400.488C649.055 395.095 646.912 389.923 643.099 386.11C639.285 382.296 634.113 380.154 628.721 380.154H389.675Z" fill="white"/>
</mask>
<g mask="url(#mask9_1653_6345)">
<path d="M649.055 380.154H369.34V420.822H649.055V380.154Z" fill="url(#paint9_linear_1653_6345)"/>
</g>
<mask id="mask10_1653_6345" style="mask-type:luminance" maskUnits="userSpaceOnUse" x="0" y="434" width="298" height="42">
<path d="M20.4756 434.461C17.7935 434.442 15.1342 434.954 12.6508 435.968C10.1675 436.981 7.90914 438.476 6.00592 440.366C4.1027 442.255 2.59223 444.503 1.56146 446.979C0.530699 449.456 0 452.111 0 454.793C0 457.476 0.530699 460.131 1.56146 462.607C2.59223 465.084 4.1027 467.331 6.00592 469.221C7.90914 471.111 10.1675 472.606 12.6508 473.619C15.1342 474.633 17.7935 475.145 20.4756 475.126H277.2C282.567 475.088 287.703 472.93 291.485 469.121C295.267 465.312 297.39 460.161 297.39 454.793C297.39 449.425 295.267 444.275 291.485 440.466C287.703 436.657 282.567 434.499 277.2 434.461H20.4756Z" fill="white"/>
</mask>
<g mask="url(#mask10_1653_6345)">
<path d="M297.538 434.461H0.140594V475.127H297.538V434.461Z" fill="url(#paint10_linear_1653_6345)"/>
</g>
<mask id="mask11_1653_6345" style="mask-type:luminance" maskUnits="userSpaceOnUse" x="331" y="434" width="280" height="42">
<path d="M351.648 434.461C346.28 434.499 341.145 436.657 337.362 440.466C333.58 444.275 331.457 449.425 331.457 454.793C331.457 460.161 333.58 465.312 337.362 469.121C341.145 472.93 346.28 475.088 351.648 475.126H589.628C592.31 475.145 594.969 474.633 597.452 473.619C599.936 472.606 602.194 471.111 604.097 469.221C606.001 467.331 607.511 465.084 608.542 462.607C609.573 460.131 610.103 457.476 610.103 454.793C610.103 452.111 609.573 449.456 608.542 446.979C607.511 444.503 606.001 442.255 604.097 440.366C602.194 438.476 599.936 436.981 597.452 435.968C594.969 434.954 592.31 434.442 589.628 434.461H351.648Z" fill="white"/>
</mask>
<g mask="url(#mask11_1653_6345)">
<path d="M609.963 434.461H331.316V475.127H609.963V434.461Z" fill="url(#paint11_linear_1653_6345)"/>
</g>
<mask id="mask12_1653_6345" style="mask-type:luminance" maskUnits="userSpaceOnUse" x="41" y="488" width="527" height="42">
<path d="M62.2176 488.766C59.5351 488.747 56.8754 489.259 54.3917 490.273C51.9079 491.286 49.6493 492.781 47.7458 494.672C45.8423 496.562 44.3316 498.81 43.3007 501.286C42.2697 503.763 41.739 506.419 41.739 509.102C41.739 511.784 42.2697 514.44 43.3007 516.917C44.3316 519.393 45.8423 521.641 47.7458 523.532C49.6493 525.422 51.9079 526.917 54.3917 527.93C56.8754 528.944 59.5351 529.456 62.2176 529.437H547.404C552.772 529.399 557.908 527.24 561.691 523.431C565.474 519.621 567.597 514.47 567.597 509.102C567.597 503.733 565.474 498.582 561.691 494.772C557.908 490.963 552.772 488.804 547.404 488.766H62.2176Z" fill="white"/>
</mask>
<g mask="url(#mask12_1653_6345)">
<path d="M567.739 488.766H41.8816V529.437H567.739V488.766Z" fill="url(#paint12_linear_1653_6345)"/>
</g>
<mask id="mask13_1653_6345" style="mask-type:luminance" maskUnits="userSpaceOnUse" x="86" y="543" width="445" height="41">
<path d="M106.953 543.077C101.56 543.077 96.3876 545.219 92.5743 549.033C88.7609 552.846 86.6186 558.018 86.6186 563.411C86.6186 568.804 88.7609 573.976 92.5743 577.789C96.3876 581.603 101.56 583.745 106.953 583.745H509.84C515.232 583.745 520.405 581.603 524.218 577.789C528.031 573.976 530.174 568.804 530.174 563.411C530.174 558.018 528.031 552.846 524.218 549.033C520.405 545.219 515.232 543.077 509.84 543.077H106.953Z" fill="white"/>
</mask>
<g mask="url(#mask13_1653_6345)">
<path d="M530.17 543.076H86.6186V583.744H530.17V543.076Z" fill="url(#paint13_linear_1653_6345)"/>
</g>
<mask id="mask14_1653_6345" style="mask-type:luminance" maskUnits="userSpaceOnUse" x="136" y="597" width="357" height="42">
<path d="M156.387 597.381C153.716 597.381 151.072 597.907 148.605 598.929C146.138 599.951 143.896 601.448 142.008 603.337C140.12 605.225 138.622 607.466 137.6 609.933C136.579 612.4 136.053 615.045 136.053 617.715C136.053 620.385 136.579 623.029 137.6 625.496C138.622 627.963 140.12 630.205 142.008 632.093C143.896 633.981 146.138 635.479 148.605 636.501C151.072 637.523 153.716 638.049 156.387 638.049H471.887C477.279 638.049 482.452 635.907 486.265 632.093C490.078 628.28 492.221 623.108 492.221 617.715C492.221 612.322 490.078 607.15 486.265 603.337C482.452 599.523 477.279 597.381 471.887 597.381H156.387Z" fill="white"/>
</mask>
<g mask="url(#mask14_1653_6345)">
<path d="M492.216 597.381H136.053V638.05H492.216V597.381Z" fill="url(#paint14_linear_1653_6345)"/>
</g>
<mask id="mask15_1653_6345" style="mask-type:luminance" maskUnits="userSpaceOnUse" x="183" y="651" width="271" height="42">
<path d="M203.348 651.688C197.954 651.688 192.782 653.831 188.968 657.644C185.154 661.458 183.012 666.631 183.012 672.024C183.012 677.417 185.154 682.59 188.968 686.404C192.782 690.217 197.954 692.36 203.348 692.36H433.076C438.469 692.36 443.642 690.217 447.455 686.404C451.269 682.59 453.412 677.417 453.412 672.024C453.412 666.631 451.269 661.458 447.455 657.644C443.642 653.831 438.469 651.688 433.076 651.688H203.348Z" fill="white"/>
</mask>
<g mask="url(#mask15_1653_6345)">
<path d="M453.411 651.688H183.013V692.359H453.411V651.688Z" fill="url(#paint15_linear_1653_6345)"/>
</g>
<mask id="mask16_1653_6345" style="mask-type:luminance" maskUnits="userSpaceOnUse" x="232" y="705" width="181" height="42">
<path d="M252.435 705.998C247.042 705.998 241.87 708.14 238.056 711.954C234.243 715.767 232.101 720.939 232.101 726.332C232.101 731.725 234.243 736.897 238.056 740.71C241.87 744.524 247.042 746.666 252.435 746.666H391.868C397.261 746.666 402.433 744.524 406.246 740.71C410.059 736.897 412.202 731.725 412.202 726.332C412.202 720.939 410.059 715.767 406.246 711.954C402.433 708.14 397.261 705.998 391.868 705.998H252.435Z" fill="white"/>
</mask>
<g mask="url(#mask16_1653_6345)">
<path d="M412.203 705.998H232.102V746.667H412.203V705.998Z" fill="url(#paint16_linear_1653_6345)"/>
</g>
</g>
</g>
<defs>
<linearGradient id="paint0_linear_1653_6345" x1="-2409.42" y1="1327.49" x2="-2406.88" y2="1327.49" gradientUnits="userSpaceOnUse">
<stop stop-color="#306DB5"/>
<stop offset="1" stop-color="#7CB6DD"/>
</linearGradient>
<linearGradient id="paint1_linear_1653_6345" x1="-5553.01" y1="1327.49" x2="-5546.83" y2="1327.49" gradientUnits="userSpaceOnUse">
<stop stop-color="#306DB5"/>
<stop offset="1" stop-color="#7CB6DD"/>
</linearGradient>
<linearGradient id="paint2_linear_1653_6345" x1="-5428.49" y1="1273.06" x2="-5422.39" y2="1273.06" gradientUnits="userSpaceOnUse">
<stop stop-color="#306DB5"/>
<stop offset="1" stop-color="#7CB6DD"/>
</linearGradient>
<linearGradient id="paint3_linear_1653_6345" x1="-5458.09" y1="1218.83" x2="-5451.93" y2="1218.83" gradientUnits="userSpaceOnUse">
<stop stop-color="#306DB5"/>
<stop offset="1" stop-color="#7CB6DD"/>
</linearGradient>
<linearGradient id="paint4_linear_1653_6345" x1="-5327.93" y1="1164.57" x2="-5321.87" y2="1164.57" gradientUnits="userSpaceOnUse">
<stop stop-color="#306DB5"/>
<stop offset="1" stop-color="#7CB6DD"/>
</linearGradient>
<linearGradient id="paint5_linear_1653_6345" x1="-5355.84" y1="1110.21" x2="-5349.7" y2="1110.21" gradientUnits="userSpaceOnUse">
<stop stop-color="#306DB5"/>
<stop offset="1" stop-color="#7CB6DD"/>
</linearGradient>
<linearGradient id="paint6_linear_1653_6345" x1="-4772.79" y1="1055.88" x2="-4767.22" y2="1055.88" gradientUnits="userSpaceOnUse">
<stop stop-color="#306DB5"/>
<stop offset="1" stop-color="#7CB6DD"/>
</linearGradient>
<linearGradient id="paint7_linear_1653_6345" x1="-3470.5" y1="1001.65" x2="-3466.23" y2="1001.65" gradientUnits="userSpaceOnUse">
<stop stop-color="#306DB5"/>
<stop offset="1" stop-color="#7CB6DD"/>
</linearGradient>
<linearGradient id="paint8_linear_1653_6345" x1="-4828.35" y1="1381.73" x2="-4823.34" y2="1381.73" gradientUnits="userSpaceOnUse">
<stop stop-color="#306DB5"/>
<stop offset="1" stop-color="#7CB6DD"/>
</linearGradient>
<linearGradient id="paint9_linear_1653_6345" x1="-5569.01" y1="1381.73" x2="-5562.86" y2="1381.73" gradientUnits="userSpaceOnUse">
<stop stop-color="#306DB5"/>
<stop offset="1" stop-color="#7CB6DD"/>
</linearGradient>
<linearGradient id="paint10_linear_1653_6345" x1="-6313.6" y1="1435.98" x2="-6307.06" y2="1435.98" gradientUnits="userSpaceOnUse">
<stop stop-color="#306DB5"/>
<stop offset="1" stop-color="#7CB6DD"/>
</linearGradient>
<linearGradient id="paint11_linear_1653_6345" x1="-5584.36" y1="1435.98" x2="-5578.23" y2="1435.98" gradientUnits="userSpaceOnUse">
<stop stop-color="#306DB5"/>
<stop offset="1" stop-color="#7CB6DD"/>
</linearGradient>
<linearGradient id="paint12_linear_1653_6345" x1="-11122.1" y1="1490.41" x2="-11110.5" y2="1490.41" gradientUnits="userSpaceOnUse">
<stop stop-color="#306DB5"/>
<stop offset="1" stop-color="#7CB6DD"/>
</linearGradient>
<linearGradient id="paint13_linear_1653_6345" x1="-9329.97" y1="1544.65" x2="-9320.21" y2="1544.65" gradientUnits="userSpaceOnUse">
<stop stop-color="#306DB5"/>
<stop offset="1" stop-color="#7CB6DD"/>
</linearGradient>
<linearGradient id="paint14_linear_1653_6345" x1="-7425.29" y1="1598.98" x2="-7417.45" y2="1598.98" gradientUnits="userSpaceOnUse">
<stop stop-color="#306DB5"/>
<stop offset="1" stop-color="#7CB6DD"/>
</linearGradient>
<linearGradient id="paint15_linear_1653_6345" x1="-5557.54" y1="1653.33" x2="-5551.59" y2="1653.33" gradientUnits="userSpaceOnUse">
<stop stop-color="#306DB5"/>
<stop offset="1" stop-color="#7CB6DD"/>
</linearGradient>
<linearGradient id="paint16_linear_1653_6345" x1="-3591.44" y1="1707.59" x2="-3587.48" y2="1707.59" gradientUnits="userSpaceOnUse">
<stop stop-color="#306DB5"/>
<stop offset="1" stop-color="#7CB6DD"/>
</linearGradient>
</defs>
</svg>
